<svg viewBox="0 0 67 67" xmlns="http://www.w3.org/2000/svg"><path style="fill:#004384"  d="M49.837 48.137V36.425c0-6.274-3.35-9.194-7.816-9.194-3.603 0-5.218 1.983-6.118 3.374V27.71h-6.79c.09 1.917 0 20.428 0 20.428h6.79v-11.41c0-.61.044-1.22.224-1.656.49-1.22 1.607-2.482 3.482-2.482 2.458 0 3.44 1.873 3.44 4.618v10.93h6.79zM21.96 24.922c2.366 0 3.84-1.57 3.84-3.53-.043-2.004-1.474-3.53-3.796-3.53s-3.84 1.526-3.84 3.53c0 1.96 1.473 3.53 3.752 3.53h.043zm3.394 23.215V27.71h-6.79v20.427h6.79zM3 4h60v60H3V4z" fill-rule="evenodd" clip-rule="evenodd"/></svg>