<?xml version="1.0" encoding="utf-8"?>
<!-- Generator: Adobe Illustrator 23.1.1, SVG Export Plug-In . SVG Version: 6.00 Build 0)  -->
<svg version="1.1" xmlns="http://www.w3.org/2000/svg" xmlns:xlink="http://www.w3.org/1999/xlink" x="0px" y="0px"
	 viewBox="0 0 1440 900" style="enable-background:new 0 0 1440 900;" xml:space="preserve">
<style type="text/css">
	.st0{fill:#FFFFFF;}
	.st1{fill:#F9C900;}
	.st2{fill:none;stroke:#000000;stroke-width:0.25;stroke-miterlimit:10;}
</style>
<g id="Layer_5">
	<rect x="589" y="252" width="266" height="370"/>
</g>
<g id="Layer_4">
	<g>
		<g>
			<path class="st0" d="M642.2,577.7h7.2v4.4H630v-4.4h7.2v-26.8h-6l-2.3-4.3h13.1V577.7z"/>
			<path class="st0" d="M667.8,582.1l-9.7-25.2h5.2l6.1,16.4c0.4,1,0.6,1.9,0.8,2.7c0.2-0.8,0.4-1.6,0.8-2.7l6-16.4h5.1l-9.7,25.2
				H667.8z"/>
			<path class="st0" d="M703.2,577.7h6.9v4.4h-18.8v-4.4h6.9v-16.4h-6.9V557h11.9V577.7z M702.9,552c-0.6,0.6-1.3,0.9-2.1,0.9
				c-0.9,0-1.6-0.3-2.1-0.9c-0.6-0.6-0.9-1.3-0.9-2.1s0.3-1.5,0.9-2.1c0.6-0.6,1.3-0.9,2.1-0.9c0.9,0,1.6,0.3,2.1,0.9
				c0.6,0.6,0.9,1.3,0.9,2.1C703.8,550.7,703.5,551.4,702.9,552z"/>
			<path class="st0" d="M728.5,582.1l-9.7-25.2h5.2l6.1,16.4c0.4,1,0.6,1.9,0.8,2.7c0.2-0.8,0.4-1.6,0.8-2.7l6-16.4h5.1l-9.7,25.2
				H728.5z"/>
			<path class="st0" d="M763.6,581.7c-0.7,0.7-1.6,1.1-2.6,1.1s-1.9-0.4-2.6-1.1c-0.7-0.7-1.1-1.6-1.1-2.5c0-1,0.4-1.8,1.1-2.5
				c0.7-0.7,1.6-1.1,2.6-1.1s1.9,0.4,2.6,1.1c0.7,0.7,1.1,1.6,1.1,2.5C764.7,580.1,764.3,581,763.6,581.7z"/>
			<path class="st0" d="M791,582.7c-5,0-8.5-2.2-10.4-6.7l4.2-2.1c0.7,1.4,1.5,2.4,2.4,3.1c0.9,0.6,2.2,1,3.8,1
				c1.7,0,3.2-0.5,4.3-1.6c1.1-1.1,1.7-3,1.7-5.6v-23h5.1v23c0,2.3-0.3,4.3-1,5.9c-0.7,1.7-1.6,2.9-2.7,3.7
				c-1.1,0.8-2.3,1.4-3.5,1.8C793.6,582.5,792.3,582.7,791,582.7z"/>
			<path class="st0" d="M822,582.7c-2.7,0-5.1-0.8-7.2-2.3c-2.1-1.5-3.6-3.5-4.4-5.9l4.7-1.7c0.7,1.6,1.7,2.8,3,3.8
				c1.3,1,2.7,1.4,4.4,1.4c1.7,0,3-0.4,4-1.3c1-0.9,1.5-2.2,1.5-3.8c0-1.5-0.6-2.7-1.9-3.8c-1.2-1.1-3-2.1-5.1-3
				c-1.4-0.6-2.5-1.1-3.3-1.6c-0.9-0.5-1.8-1.1-2.9-2s-1.8-1.8-2.3-2.9c-0.5-1.1-0.8-2.3-0.8-3.7c0-2.5,0.9-4.5,2.8-6.2
				c1.9-1.7,4.3-2.5,7.4-2.5c2.4,0,4.5,0.6,6.3,1.9c1.8,1.2,2.9,2.9,3.5,4.8l-4.6,1.5c-0.5-1-1.2-1.9-2.1-2.5c-0.9-0.7-2-1-3.3-1
				c-1.4,0-2.6,0.4-3.4,1.1c-0.9,0.7-1.3,1.7-1.3,3c0,0.7,0.2,1.2,0.5,1.8c0.3,0.5,0.8,1,1.5,1.5c0.7,0.5,1.3,0.9,1.9,1.1
				c0.6,0.3,1.4,0.7,2.5,1.2c0.1,0,0.1,0.1,0.1,0.1c0,0,0.1,0,0.1,0c0.1,0,0.1,0,0.1,0.1c1.3,0.6,2.4,1.2,3.3,1.7
				c0.9,0.5,1.9,1.3,3,2.1c1,0.9,1.9,1.9,2.4,3.2c0.6,1.2,0.8,2.6,0.8,4c0,3.1-1,5.5-3.1,7.3C827.7,581.8,825.1,582.7,822,582.7z"/>
		</g>
		<g>
			<g>
				<path class="st1" d="M718.7,420.7l0.3-0.1c-0.2,0.1-0.4,0.1-0.6,0.2C718.5,420.8,718.6,420.8,718.7,420.7z"/>
				<path class="st1" d="M758.1,398.8l-15.7,7l16.3-7.2c0.8-0.4,1.3-1.1,1.5-1.9C759.8,397.6,759.1,398.3,758.1,398.8z"/>
				<path class="st1" d="M718.7,420.7l0.3-0.1c-0.2,0.1-0.4,0.1-0.6,0.2C718.5,420.8,718.6,420.8,718.7,420.7z"/>
				<path class="st1" d="M742.4,405.8l16.3-7.2c0.8-0.4,1.3-1.1,1.5-1.9c-0.4,0.9-1.1,1.7-2.1,2.1L742.4,405.8z"/>
				<g>
					<path class="st1" d="M787.7,459.4l-45.2,8.3l50.1-43.7l37.6-65.4l-23.7,75.2L787.7,459.4z"/>
				</g>
				<path class="st1" d="M745.1,439.6"/>
				<polygon class="st1" points="735,388.7 762.3,357 726.2,373.5 				"/>
				<path class="st1" d="M764.8,382.5L733,397.4l-14.5-23.6l33.3-18.7c-13.7-26.6-29.8-57.6-29.8-57.6c-0.2,0-55.3,0.2-55.3,0.2
					l1.5,5.1l13.9,76.7c0,0,31.4,33.1,41,40.1c0.4,0,46.2-20.9,46.2-20.9L764.8,382.5z"/>
				<polygon class="st1" points="739.3,390.3 758.8,381.4 764.9,358.7 				"/>
				<polygon class="st1" points="652.4,285.4 655.9,252.2 678.6,294.1 661.1,294.1 				"/>
				<polygon class="st1" points="736.1,259.2 704.7,294.1 722.2,294.1 732.6,287.1 				"/>
				<path class="st2" d="M750.1,297.4"/>
				<path class="st2" d="M663.8,297.8"/>
				<path class="st2" d="M648.1,264.6"/>
				<path class="st1" d="M736.9,465.4l54.2-47.4l35.7-66.3c0,0-40.1,44.5-41.9,45.3c0,0-53.2,24-60.1,26.8L736.9,465.4z"/>
				<polygon class="st1" points="731.1,470.9 731.4,470.9 731.6,470.8 				"/>
				<path class="st1" d="M732.7,475.5l-15.4-54.1c-2.6-2.5-5.8-5.5-9.5-8.9c-5.6-1.9-19.3-6.6-26.6-8.2c-1.1-6.6-2.6-13.6-4-19.2
					c-0.1-0.1-0.2-0.2-0.3-0.3c-0.2-0.2-0.9-3.5-2-8.7c-0.4-1.4-0.6-2.3-0.6-2.3l0.2,0.2c-4.6-22.4-13.8-72-13.8-72l-29.1,95.6
					c0,0,12.2,25.5,24.8,51.3l59.5,53.2l55.2,9.9l20.3-26.2l0.6-20.5L732.7,475.5z"/>
			</g>
		</g>
	</g>
</g>
</svg>
