<?xml version="1.0" encoding="utf-8"?>
<!-- Generator: Adobe Illustrator 23.1.1, SVG Export Plug-In . SVG Version: 6.00 Build 0)  -->
<svg version="1.1" xmlns="http://www.w3.org/2000/svg" xmlns:xlink="http://www.w3.org/1999/xlink" x="0px" y="0px"
	 viewBox="0 0 1440 900" style="enable-background:new 0 0 1440 900;" xml:space="preserve">
<style type="text/css">
	.st0{fill:none;}
	.st1{fill:none;stroke:#FFFFFF;stroke-miterlimit:10;}
</style>
<g id="Layer_1">
	<rect width="1440" height="900"/>
</g>
<g id="Layer_3">
	<g>
		<rect x="-22.1" y="-10" class="st0" width="739.1" height="920"/>
		<g>
			<rect x="505.6" y="64.6" class="st1" width="51.1" height="52.8"/>
			<rect x="655.6" y="222.6" class="st1" width="40.1" height="41.4"/>
			<rect x="532.2" y="689.8" class="st1" width="51.1" height="52.8"/>
			<rect x="608.4" y="856.6" class="st1" width="51.1" height="52.8"/>
			<ellipse class="st1" cx="583.4" cy="205" rx="26.1" ry="26.9"/>
			<ellipse class="st1" cx="664.6" cy="776.9" rx="26.1" ry="26.9"/>
			<ellipse class="st1" cx="516.2" cy="585.2" rx="36.1" ry="37.3"/>
			<ellipse class="st1" cx="615.5" cy="27.8" rx="36.1" ry="37.3"/>
			<ellipse class="st1" cx="656.1" cy="392" rx="22.6" ry="23.3"/>
			<polygon class="st1" points="537.1,275.5 496.7,275.5 476.6,311.6 496.7,347.7 537.1,347.7 557.3,311.6 			"/>
			<polygon class="st1" points="675.5,490 635.1,490 614.9,526.1 635.1,562.2 675.5,562.2 695.7,526.1 			"/>
			<polygon class="st1" points="552.2,411.7 522.4,465 582,465 			"/>
			<polygon class="st1" points="668.5,623 638.7,676.4 698.3,676.4 			"/>
			<polygon class="st1" points="716,115.7 664.4,84.9 664.4,146.5 			"/>
			<polygon class="st1" points="471.6,842 523.3,872.8 523.3,811.2 			"/>
		</g>
		<g>
			<rect x="259.3" y="64.6" class="st1" width="51.1" height="52.8"/>
			<rect x="409.2" y="222.6" class="st1" width="40.1" height="41.4"/>
			<rect x="285.9" y="689.8" class="st1" width="51.1" height="52.8"/>
			<rect x="362.1" y="856.6" class="st1" width="51.1" height="52.8"/>
			<ellipse class="st1" cx="337" cy="205" rx="26.1" ry="26.9"/>
			<ellipse class="st1" cx="418.2" cy="776.9" rx="26.1" ry="26.9"/>
			<ellipse class="st1" cx="269.8" cy="585.2" rx="36.1" ry="37.3"/>
			<ellipse class="st1" cx="369.1" cy="27.8" rx="36.1" ry="37.3"/>
			<ellipse class="st1" cx="409.7" cy="392" rx="22.6" ry="23.3"/>
			<polygon class="st1" points="290.8,275.5 250.4,275.5 230.2,311.6 250.4,347.7 290.8,347.7 310.9,311.6 			"/>
			<polygon class="st1" points="429.1,490 388.8,490 368.6,526.1 388.8,562.2 429.1,562.2 449.3,526.1 			"/>
			<polygon class="st1" points="305.9,411.7 276,465 335.7,465 			"/>
			<polygon class="st1" points="422.2,623 392.4,676.4 452,676.4 			"/>
			<polygon class="st1" points="469.6,115.7 418,84.9 418,146.5 			"/>
			<polygon class="st1" points="225.3,842 276.9,872.8 276.9,811.2 			"/>
		</g>
		<g>
			<rect x="12.9" y="64.6" class="st1" width="51.1" height="52.8"/>
			<rect x="162.9" y="222.6" class="st1" width="40.1" height="41.4"/>
			<rect x="39.5" y="689.8" class="st1" width="51.1" height="52.8"/>
			<rect x="115.7" y="856.6" class="st1" width="51.1" height="52.8"/>
			<ellipse class="st1" cx="90.6" cy="205" rx="26.1" ry="26.9"/>
			<ellipse class="st1" cx="171.9" cy="776.9" rx="26.1" ry="26.9"/>
			<ellipse class="st1" cx="23.5" cy="585.2" rx="36.1" ry="37.3"/>
			<ellipse class="st1" cx="122.7" cy="27.8" rx="36.1" ry="37.3"/>
			<ellipse class="st1" cx="163.4" cy="392" rx="22.6" ry="23.3"/>
			<polygon class="st1" points="44.4,275.5 4,275.5 -16.1,311.6 4,347.7 44.4,347.7 64.6,311.6 			"/>
			<polygon class="st1" points="182.8,490 142.4,490 122.2,526.1 142.4,562.2 182.8,562.2 203,526.1 			"/>
			<polygon class="st1" points="59.5,411.7 29.7,465 89.3,465 			"/>
			<polygon class="st1" points="175.8,623 146,676.4 205.6,676.4 			"/>
			<polygon class="st1" points="223.3,115.7 171.6,84.9 171.6,146.5 			"/>
			<polygon class="st1" points="-21.1,842 30.6,872.8 30.6,811.2 			"/>
		</g>
	</g>
	<g>
		<rect x="717" y="-10" class="st0" width="739.1" height="920"/>
		<g>
			<rect x="1244.7" y="64.6" class="st1" width="51.1" height="52.8"/>
			<rect x="1394.6" y="222.6" class="st1" width="40.1" height="41.4"/>
			<rect x="1271.3" y="689.8" class="st1" width="51.1" height="52.8"/>
			<rect x="1347.5" y="856.6" class="st1" width="51.1" height="52.8"/>
			<ellipse class="st1" cx="1322.4" cy="205" rx="26.1" ry="26.9"/>
			<ellipse class="st1" cx="1403.7" cy="776.9" rx="26.1" ry="26.9"/>
			<ellipse class="st1" cx="1255.2" cy="585.2" rx="36.1" ry="37.3"/>
			<ellipse class="st1" cx="1354.5" cy="27.8" rx="36.1" ry="37.3"/>
			<ellipse class="st1" cx="1395.1" cy="392" rx="22.6" ry="23.3"/>
			<polygon class="st1" points="1276.2,275.5 1235.8,275.5 1215.6,311.6 1235.8,347.7 1276.2,347.7 1296.4,311.6 			"/>
			<polygon class="st1" points="1414.6,490 1374.2,490 1354,526.1 1374.2,562.2 1414.6,562.2 1434.7,526.1 			"/>
			<polygon class="st1" points="1291.3,411.7 1261.5,465 1321.1,465 			"/>
			<polygon class="st1" points="1407.6,623 1377.8,676.4 1437.4,676.4 			"/>
			<polygon class="st1" points="1455.1,115.7 1403.4,84.9 1403.4,146.5 			"/>
			<polygon class="st1" points="1210.7,842 1262.4,872.8 1262.4,811.2 			"/>
		</g>
		<g>
			<rect x="998.4" y="64.6" class="st1" width="51.1" height="52.8"/>
			<rect x="1148.3" y="222.6" class="st1" width="40.1" height="41.4"/>
			<rect x="1024.9" y="689.8" class="st1" width="51.1" height="52.8"/>
			<rect x="1101.1" y="856.6" class="st1" width="51.1" height="52.8"/>
			<ellipse class="st1" cx="1076.1" cy="205" rx="26.1" ry="26.9"/>
			<ellipse class="st1" cx="1157.3" cy="776.9" rx="26.1" ry="26.9"/>
			<ellipse class="st1" cx="1008.9" cy="585.2" rx="36.1" ry="37.3"/>
			<ellipse class="st1" cx="1108.2" cy="27.8" rx="36.1" ry="37.3"/>
			<ellipse class="st1" cx="1148.8" cy="392" rx="22.6" ry="23.3"/>
			<polygon class="st1" points="1029.8,275.5 989.5,275.5 969.3,311.6 989.5,347.7 1029.8,347.7 1050,311.6 			"/>
			<polygon class="st1" points="1168.2,490 1127.8,490 1107.7,526.1 1127.8,562.2 1168.2,562.2 1188.4,526.1 			"/>
			<polygon class="st1" points="1044.9,411.7 1015.1,465 1074.7,465 			"/>
			<polygon class="st1" points="1161.2,623 1131.4,676.4 1191.1,676.4 			"/>
			<polygon class="st1" points="1208.7,115.7 1157.1,84.9 1157.1,146.5 			"/>
			<polygon class="st1" points="964.4,842 1016,872.8 1016,811.2 			"/>
		</g>
		<g>
			<rect x="752" y="64.6" class="st1" width="51.1" height="52.8"/>
			<rect x="901.9" y="222.6" class="st1" width="40.1" height="41.4"/>
			<rect x="778.6" y="689.8" class="st1" width="51.1" height="52.8"/>
			<rect x="854.8" y="856.6" class="st1" width="51.1" height="52.8"/>
			<ellipse class="st1" cx="829.7" cy="205" rx="26.1" ry="26.9"/>
			<ellipse class="st1" cx="910.9" cy="776.9" rx="26.1" ry="26.9"/>
			<ellipse class="st1" cx="762.5" cy="585.2" rx="36.1" ry="37.3"/>
			<ellipse class="st1" cx="861.8" cy="27.8" rx="36.1" ry="37.3"/>
			<ellipse class="st1" cx="902.4" cy="392" rx="22.6" ry="23.3"/>
			<polygon class="st1" points="783.5,275.5 743.1,275.5 722.9,311.6 743.1,347.7 783.5,347.7 803.6,311.6 			"/>
			<polygon class="st1" points="921.8,490 881.5,490 861.3,526.1 881.5,562.2 921.8,562.2 942,526.1 			"/>
			<polygon class="st1" points="798.6,411.7 768.7,465 828.4,465 			"/>
			<polygon class="st1" points="914.9,623 885.1,676.4 944.7,676.4 			"/>
			<polygon class="st1" points="962.4,115.7 910.7,84.9 910.7,146.5 			"/>
			<polygon class="st1" points="718,842 769.6,872.8 769.6,811.2 			"/>
		</g>
	</g>
</g>
</svg>
