<?xml version="1.0" encoding="UTF-8"?>
<!DOCTYPE svg PUBLIC "-//W3C//DTD SVG 1.1//EN" "http://www.w3.org/Graphics/SVG/1.1/DTD/svg11.dtd">
<!-- Creator: CorelDRAW X6 -->
<svg xmlns="http://www.w3.org/2000/svg" xml:space="preserve" width="11in" height="14.9722in" version="1.1" style="shape-rendering:geometricPrecision; text-rendering:geometricPrecision; image-rendering:optimizeQuality; fill-rule:evenodd; clip-rule:evenodd"
viewBox="0 0 11000 14972"
 xmlns:xlink="http://www.w3.org/1999/xlink">
 <defs>
  <style type="text/css">
   <![CDATA[
    .fil2 {fill:#2F3031;fill-rule:nonzero}
    .fil1 {fill:#FEFEFE;fill-rule:nonzero}
    .fil0 {fill:#FFCC39;fill-rule:nonzero}
   ]]>
  </style>
 </defs>
 <g id="Layer_x0020_1">
  <metadata id="CorelCorpID_0Corel-Layer"/>
  <path class="fil0" d="M163 1707l415 -793 -559 692 144 101zm5624 -1721l0 0 -126 630 992 589 938 42 -286 -370 -1519 -890zm-5788 1669l87 1677 184 183 -145 -1660 -126 -199zm5972 3168l364 -1 255 -129 -95 -327 -405 -262 -119 719zm-1041 -1206l273 512 359 608 331 81 332 -1975 -1295 774zm-3187 1217l1005 23 -10 -245 -409 -557 -586 779zm429 -3325l-1990 329 375 737 1616 -1066zm-1636 1176l1157 1894 599 -619 246 -1338 -233 -1054 -1769 1118zm4056 834l-52 -399 -1603 258 1655 141zm-2141 -1973l253 1052 -244 748 2058 -344 -478 -1644 -1589 188zm-1678 -789c0,0 -494,945 -465,943 29,-2 2034,-273 2034,-273l228 -825 -1798 156zm1877 -152l-227 845 1617 -200 120 -708 -1510 64zm2009 2562l129 383 1827 -1004 -1957 621zm2066 -729l-1134 -1728 -1494 623 515 1739 2113 -634zm-2440 -1937l-174 762 1483 -642 127 -620 -1435 500zm1363 185l874 1316 98 -736 -972 -580zm1475 1691l-42 -154 -475 -30 249 285 267 -100zm142 -1035l-604 -49 -56 762 654 -673m-609 738l467 60 355 -235 -66 -575 -756 750zm819 -696l71 516 161 -82 94 -539 -326 105zm813 -46l-119 -374 -210 76 -154 652 483 -354zm-369 -177l-489 -807 -160 338 484 512 164 -43zm122 -197l179 -821 -487 -59 181 900 126 -20zm-228 2045l-503 -136 103 425 400 -288zm1025 -703l-503 -864 -1130 741 96 573 638 224 900 -673zm265 716l-260 -540 -1404 891 1664 -352zm248 993l-612 -19 -9 257 620 -237zm-64 -1520l-392 -106 295 606 97 -500zm-1760 979l1114 756 11 -227 526 -918 -1651 390zm1275 438l479 -885 1633 -251 -1466 1211 -646 -76z"/>
  <path class="fil0" d="M4989 14054c126,0 154,-61 179,-130l110 0 0 1036 -163 0 0 -791 -126 0 0 -115zm-1443 668c0,74 33,102 84,102 52,0 84,-28 84,-102l0 -560c0,-74 -33,-102 -84,-102 -52,0 -84,28 -84,102l0 560zm-163 -549c0,-166 87,-261 247,-261 160,0 247,95 247,261l0 539c0,166 -87,261 -247,261 -160,0 -247,-95 -247,-261l0 -539zm-1260 -113c-52,0 -84,28 -84,102l0 111 -154 0 0 -101c0,-166 83,-261 243,-261 160,0 243,95 243,261 0,138 -50,249 -201,410 -96,104 -123,153 -123,207 0,8 0,15 1,22l308 0 0 148 -471 0 0 -127c0,-115 41,-203 163,-330 124,-132 160,-213 160,-324 0,-93 -33,-118 -84,-118zm3418 -6266c855,0 1294,511 1294,1406l0 176 -831 0 0 -232c0,-399 -160,-551 -439,-551 -280,0 -439,152 -439,551 0,407 176,711 751,1214 735,647 966,1110 966,1749 0,895 -447,1406 -1310,1406 -863,0 -1310,-511 -1310,-1406l0 -343 831 0 0 399c0,399 176,543 455,543 280,0 455,-144 455,-543 0,-407 -176,-711 -751,-1214 -735,-647 -966,-1110 -966,-1749 0,-895 439,-1406 1294,-1406zm-3754 4856c96,8 208,8 303,8 280,0 503,-104 503,-535l0 -4265 879 0 0 4201c0,1118 -599,1406 -1262,1406 -160,0 -280,0 -423,-16l0 -799zm4594 -5528l5 0 224 -1540 272 0 -291 1888 -442 0 -291 -1888 299 0 224 1540zm-1497 -1540l297 0 0 1888 -297 0 0 -1888zm-1179 1540l5 0 224 -1540 272 0 -291 1888 -442 0 -291 -1888 299 0 224 1540zm-1810 -1540l297 0 0 1619 488 0 0 270 -785 0 0 -1888z"/>
  <path class="fil0" d="M6664 14533c0,-20 -7,-37 -22,-51 -14,-14 -31,-21 -50,-21 -19,0 -36,7 -50,21 -14,14 -22,31 -22,51l0 201c0,20 7,37 22,51 14,14 31,21 50,21 19,0 36,-7 50,-21 14,-14 22,-31 22,-51l0 -201zm0 -403c0,-20 -7,-37 -22,-51 -14,-14 -31,-21 -50,-21 -19,0 -36,7 -50,21 -14,14 -22,31 -22,51l0 150c0,20 7,37 22,51 14,14 31,21 50,21 19,0 36,-7 50,-21 14,-14 22,-31 22,-51l0 -150zm-291 58c0,-28 1,-52 3,-71 2,-20 5,-37 10,-51 5,-14 10,-27 17,-39 6,-11 14,-23 24,-36 19,-25 43,-44 72,-58 29,-14 60,-21 93,-21 34,0 65,7 93,21 29,14 53,33 72,58 10,13 18,25 24,36 7,12 12,25 17,39 5,14 8,31 9,51 1,20 2,43 2,71 0,31 -1,57 -2,78 -1,21 -4,40 -9,56 -5,16 -12,31 -22,44 -10,13 -24,27 -41,41 17,13 31,27 41,40 10,13 17,29 22,47 5,18 8,41 9,67 1,26 2,59 2,97 0,32 -1,58 -2,78 -1,21 -4,39 -7,54 -3,15 -7,28 -12,39 -5,11 -12,22 -19,33 -16,25 -39,46 -69,64 -30,18 -66,27 -109,27 -43,0 -80,-9 -109,-27 -30,-18 -53,-39 -69,-64 -8,-11 -14,-23 -19,-33 -5,-10 -9,-23 -12,-39 -3,-15 -5,-33 -6,-54 -1,-21 -2,-47 -2,-78 0,-38 1,-71 1,-97 1,-26 4,-49 9,-67 5,-18 12,-34 22,-47 10,-13 24,-27 41,-40 -17,-14 -31,-28 -41,-41 -10,-13 -17,-28 -22,-44 -5,-16 -8,-35 -9,-56 -1,-21 -1,-47 -1,-78z"/>
  <path class="fil1" d="M3169 8610c-2,1 -4,2 -5,4 -1,1 -2,2 -3,3 -1,1 -4,1 -5,2 -4,1 -8,2 -12,4 -4,2 -7,6 -7,11 -2,2 -4,5 -5,7 -1,6 2,10 6,13 2,7 1,15 -1,25 0,1 0,3 0,4 -2,1 -3,2 -4,3 -5,0 -13,2 -16,10 -1,3 -1,5 0,7 -1,1 -1,2 -1,4 -1,3 0,6 2,9 -1,1 -1,2 -2,3 -2,4 -6,8 -9,11 -3,3 -7,7 -9,10 -2,3 -2,8 -1,12 -4,5 -6,10 -5,15 -3,2 -6,4 -8,7 -1,1 -2,3 -2,5 -1,1 -1,2 -2,3 -1,2 -3,5 -4,9 -1,0 -3,-1 -4,-1 -4,-2 -9,-2 -13,1 -4,3 -5,8 -4,13 0,1 0,1 -2,5l0 0c-2,-1 -5,-1 -7,-1 -5,1 -9,5 -10,11 -1,9 -6,15 -13,15l0 0c-7,0 -15,-6 -19,-14 -2,-4 -6,-6 -11,-6l0 0c-5,0 -9,3 -11,7l-2 5c0,1 -1,2 -1,3 0,0 -1,-1 -1,-1 -1,-1 -1,-3 -2,-4 0,-4 -2,-8 -5,-10 -7,-5 -14,-9 -22,-14 -8,-5 -16,-9 -25,-16 -8,-6 -22,-17 -31,-33 1,-1 1,-3 1,-4 1,-5 -2,-9 -6,-12 0,-8 -5,-14 -8,-18 3,-3 3,-7 3,-11 0,-1 -1,-2 -1,-3 1,-3 2,-8 -1,-13 -1,-2 -2,-3 -4,-4 -13,-19 -12,-41 -9,-53 1,-5 -1,-9 -5,-12 -8,-6 -8,-11 -7,-21 0,-7 1,-15 -2,-24 1,-3 1,-6 0,-9 -6,-13 -1,-25 8,-42 4,-8 8,-15 11,-24 4,-6 5,-12 6,-17 0,-1 0,-1 0,-2 2,-1 4,-2 5,-4 4,-4 4,-11 2,-15 0,-1 3,-3 11,-7 6,-3 15,-8 19,-17 0,0 1,-1 1,-1 4,-3 6,-8 5,-13 1,-2 2,-5 2,-8 0,-1 0,-2 0,-3 1,-2 1,-5 0,-7l0 -1c1,0 3,0 3,0 5,0 15,0 22,-8 1,0 2,-1 3,-2 16,9 28,1 34,-6 1,1 3,2 5,3 6,1 11,-1 13,-7 1,0 3,0 4,0 1,0 2,0 3,0 1,1 2,1 3,2 2,2 4,4 7,5 7,1 13,1 19,0 1,0 2,0 2,0 1,2 2,3 3,5 4,4 11,4 15,1 1,0 3,2 4,3 2,2 4,4 7,6 1,1 1,2 3,3 10,8 21,15 31,22 10,6 21,13 30,21 0,1 0,3 1,4 0,1 1,2 1,3 0,1 0,2 0,3 1,6 6,10 11,13 0,0 0,1 0,1 1,4 3,7 7,9 4,2 8,2 12,1 3,6 7,11 10,17 5,9 11,18 17,27 -2,2 -3,4 -4,7 -1,5 1,10 6,13 17,10 16,24 14,46 -4,2 -6,5 -6,10 0,2 1,4 2,6 -1,0 -3,0 -4,0 -10,-1 -21,-2 -32,2zm86 4c0,-7 -4,-10 -10,-12 1,-3 2,-5 2,-7 0,-3 -1,-6 -3,-8l0 0c2,-3 3,-7 2,-11 0,0 0,-1 0,-2 0,-1 0,-3 -1,-4 -1,-2 -1,-4 -1,-6 -1,-6 -2,-14 -9,-21 0,-2 0,-3 0,-5 3,-3 4,-7 3,-11 -1,-5 -5,-9 -9,-11 -1,-1 -3,-2 -4,-2 -5,-28 -21,-53 -37,-76 -4,-6 -8,-11 -11,-17 -2,-3 -6,-6 -10,-6 -7,0 -9,-2 -13,-13 -3,-7 -6,-16 -14,-23 -1,-3 -2,-5 -5,-7 -2,-1 -4,-2 -7,-2l0 0c-6,0 -11,-3 -14,-6 -3,-4 -9,-6 -14,-4 -1,0 -2,1 -3,1 -15,-18 -38,-30 -67,-35 -26,-3 -52,1 -78,5l-4 1c-71,17 -114,59 -118,112 -2,2 -3,4 -3,7 -1,5 -4,9 -7,14 -3,5 -7,11 -9,18 -3,3 -4,7 -4,11 2,14 -1,27 -4,40l-2 8c-4,17 -7,37 2,57 -4,37 2,79 16,113 0,0 -1,1 -1,2 -1,4 -1,8 1,11 7,10 9,22 11,36 3,19 7,40 24,56 9,22 31,32 47,38l10 3c12,4 23,8 30,15 3,7 8,11 14,14 9,4 21,3 34,-2l6 -2c10,-4 11,-4 15,0 12,9 25,13 37,13 16,0 31,-7 42,-16 16,-13 27,-33 33,-60 18,-13 25,-35 29,-50 5,-16 9,-27 23,-37 5,-4 7,-11 3,-17 1,-2 6,-7 10,-10 9,-8 22,-18 21,-34 0,-2 -1,-3 -1,-4 0,-2 -1,-4 -2,-6 3,-2 4,-5 5,-8 0,-8 -5,-12 -12,-15l1 -1c3,1 6,0 8,0 1,0 4,-1 4,-1 3,3 8,4 12,3 4,-1 7,-6 9,-10l1 0c1,1 4,1 6,1 2,0 4,0 6,-1 5,-1 9,-6 9,-12 0,-2 -1,-3 -1,-4 0,-1 1,-1 1,-2z"/>
  <path class="fil1" d="M3380 7897c20,-3 40,-6 59,-10 1,2 2,4 5,6 0,0 1,0 1,0l-65 4zm69 1946c-1,-1 -3,-1 -5,-2 9,-2 18,-4 27,-5 -7,1 -15,4 -22,7zm80 -2001c-5,1 -10,1 -15,1 -12,1 -26,1 -39,8 -6,-3 -12,-2 -15,-3 -2,0 -4,0 -4,0 -2,-3 -6,-5 -9,-6 -4,0 -7,1 -10,4 -1,1 -1,1 -3,2 -2,1 -5,3 -8,7 -39,-2 -77,2 -115,6 -29,3 -58,6 -87,6 -3,0 -5,1 -7,3 -14,12 -33,9 -53,6 -13,-2 -28,-4 -42,-2 0,0 0,0 0,0 -4,-2 -8,-2 -12,0 0,0 -1,0 -1,0 -11,6 -27,8 -39,6 -4,-1 -7,0 -10,3l-8 7c-56,-10 -112,-8 -166,-5 -36,1 -73,3 -109,1 -21,0 -42,-1 -62,-2 -31,-1 -60,-3 -90,-2 -29,0 -53,2 -76,5 -16,2 -28,5 -39,8l-14 5c-2,-1 -5,-1 -8,0 0,0 -1,0 -1,0 0,-6 1,-11 0,-17l0 0c2,-4 1,-8 -1,-12 -1,-2 -3,-12 -4,-18 -1,-8 -2,-16 -3,-26 -1,-17 -1,-35 -1,-53 0,-33 0,-71 -11,-107 0,-16 0,-31 0,-46 42,0 102,-2 161,-6 0,0 1,1 1,1 3,3 6,4 10,3 34,-5 68,-1 103,4 32,4 66,8 100,5 35,5 71,-1 101,-6 8,6 18,10 28,10 5,0 9,-1 13,-2 11,-3 21,-11 31,-18 12,0 27,0 41,3 10,5 21,7 32,7 9,0 18,-1 26,-3 4,4 10,8 17,8 2,0 4,0 7,-1 1,0 2,-1 3,-2 2,1 4,2 6,2l0 0c3,0 5,-1 7,-2 0,2 0,3 0,4 -2,3 -2,6 -1,9 2,5 8,10 14,10l2 0c4,-1 15,-5 14,-24l0 -9c0,-3 0,-5 0,-7 6,1 11,2 17,5 86,37 171,16 252,-5l7 -2c29,4 59,3 86,1 14,-1 52,-5 85,-5 -1,25 -5,47 -10,62 -1,3 -1,6 1,9 7,16 1,34 -7,54 -7,19 -14,38 -11,58 0,2 1,3 1,4 0,9 6,17 9,22l0 0c-8,4 -9,11 -9,14 0,4 2,7 4,9 -5,3 -8,9 -10,15 -1,0 -2,0 -3,0 -1,-2 -3,-5 -5,-6 -13,-6 -23,0 -30,4 0,0 -1,1 -1,1 -2,-2 -4,-4 -7,-6 -5,-2 -10,-1 -12,0 -1,0 -2,-1 -2,-1 -1,0 -3,0 -4,0zm-100 136c0,1 -1,1 -1,1 -2,5 -1,9 0,12 6,24 8,57 5,82 0,2 0,4 1,6l9 21c-13,103 -12,210 -12,312 0,68 0,138 -3,206 -1,39 -3,77 -5,115 -7,148 -13,288 10,438 -2,2 -3,5 -2,8 2,27 1,53 0,78 -1,24 -2,48 0,73 -1,2 -2,5 -2,8 10,63 9,129 8,194 -1,67 -1,137 10,200l-1 52c-37,2 -74,4 -117,7l-44 3c-19,1 -40,2 -62,4l-2 0c0,-1 0,-2 0,-3 0,-6 0,-14 -5,-22 1,-1 1,-3 1,-5 3,-2 5,-6 6,-10 0,-5 -3,-10 -7,-12 -1,-1 -2,-2 -3,-3 2,-20 0,-40 -2,-59 -2,-16 -3,-30 -3,-45 0,-4 -2,-8 -5,-10 -6,-5 -6,-7 -2,-20 2,-7 5,-15 5,-24 2,-4 2,-10 -2,-14 -3,-4 -5,-9 -3,-13 2,-5 0,-11 -4,-14l-2 -2c10,-29 10,-57 10,-85 0,-20 0,-39 3,-59l6 -54c2,-21 4,-43 5,-64 0,-3 -1,-7 -3,-9 -2,-2 -5,-4 -9,-4 -23,-1 -46,0 -69,2 -12,2 -23,4 -34,6 -6,1 -11,3 -15,5 -2,-1 -5,-1 -7,0 -6,2 -18,1 -26,0 -5,-1 -10,-1 -14,-1 -1,0 -2,0 -2,0 -5,0 -9,2 -11,6 -3,1 -14,3 -46,2 -31,-1 -52,2 -65,10l-26 -1c-3,1 -6,1 -9,3 -2,2 -4,5 -4,9 0,18 0,95 2,117 0,7 0,23 1,41 0,30 0,49 1,61 -2,2 -3,5 -3,8 0,2 0,3 1,4 -4,10 -13,28 -8,52 -5,21 3,37 9,50 6,12 10,21 6,35 -16,18 -4,36 2,46 8,12 7,12 2,17 -17,21 -24,35 -22,63 0,3 1,6 1,8 -58,-1 -113,-2 -170,5 -19,-1 -41,-1 -61,0 -1,-7 -3,-13 -4,-20 -3,-10 -5,-21 -6,-35l-11 -82c-4,-51 -9,-108 -3,-161 12,-44 5,-93 -2,-141 -7,-47 -13,-91 -2,-128 36,-155 15,-303 -7,-459l-3 -17c6,-65 3,-131 -1,-195 -4,-83 -8,-162 6,-241 0,-2 0,-4 0,-5 -9,-35 -2,-72 6,-112 6,-33 13,-67 11,-102 0,-2 -1,-4 -2,-6 2,-13 -3,-26 -7,-36 -4,-9 -5,-14 -5,-17 3,0 5,-2 7,-4 15,-16 -2,-34 -10,-41 -1,-1 -3,-2 -4,-4 1,-2 1,-4 1,-6 0,-2 -1,-3 -1,-5 3,-3 4,-7 4,-10 0,-2 0,-3 0,-5 0,-2 -1,-4 -2,-5l1 -1c3,-3 4,-7 5,-11 4,2 7,3 9,3 0,0 1,0 1,0 10,-1 16,-10 21,-17 0,-1 1,-2 2,-2 0,0 1,0 1,0 0,0 0,1 0,1 3,2 7,3 11,3 2,0 5,-1 8,-2 1,4 4,7 8,9 16,5 30,1 42,-3 7,-2 13,-4 18,-4 0,1 0,1 0,1 2,4 5,7 9,7 5,1 12,2 17,-2 3,2 6,4 9,3 10,-1 21,-1 31,-1 25,0 51,0 75,-8 8,5 18,5 27,5 8,0 17,0 20,3 4,3 9,4 14,2 2,-1 5,-2 8,-3 5,-1 10,-3 15,-7 75,4 151,1 225,-1 53,-2 107,-4 161,-3 3,0 3,0 4,-1 16,-6 33,-9 54,-9 12,0 22,1 31,3 -1,5 -1,9 -1,14 0,6 0,11 0,19zm-494 1495l0 0c4,-11 1,-21 -2,-29 0,0 0,-1 0,-1 1,-1 2,-1 3,-2 3,-2 4,-6 4,-10 0,-2 0,-3 -1,-5 2,-3 5,-8 3,-15 0,-1 -1,-2 -2,-3l0 0c-8,-28 -8,-40 -5,-50 1,-4 1,-7 -1,-11l0 0c7,0 14,-1 20,-5 3,0 6,0 8,-2 14,-8 30,-6 48,-3 12,2 25,4 38,3 9,1 16,-1 23,-2 1,0 2,0 3,-1 1,2 3,3 6,4 5,2 10,0 13,-3 2,-2 6,-6 16,1l3 2c9,5 16,7 26,3 1,0 2,1 3,1 4,0 7,-1 10,-4l0 0c1,0 3,0 4,0l0 0 -2 5c-3,6 -7,15 -4,23 -1,2 0,5 0,7 -18,16 -10,35 -5,45l0 1c-2,1 -4,3 -5,6 -2,5 0,12 4,15 0,1 0,5 0,7 0,2 -1,5 -1,7 -1,1 -1,2 -2,3 0,1 -1,1 -1,2 -2,2 -3,5 -3,8 -1,10 2,19 5,28 0,1 0,2 1,2 -2,1 -4,3 -5,6 -2,5 -1,11 3,14 3,2 3,3 2,12 -1,4 -2,8 -1,13 -1,1 -1,3 -1,5 -2,26 4,49 10,72 2,7 4,14 5,21 -1,1 -1,2 -1,4 0,1 0,2 0,3 -1,1 -1,3 -2,4 -2,7 0,13 3,19 0,1 -1,1 -1,2 -1,4 -1,7 2,10 3,4 7,6 11,7l0 2c3,19 5,39 11,58 -2,1 -4,3 -5,5 -2,5 -1,10 2,14 10,10 12,19 11,32 -11,1 -21,1 -31,2 0,-1 -1,-1 -1,-1l-1 0 0 0 0 0c-1,-1 -2,-1 -3,-1 -1,0 -2,-1 -3,-1 -3,-1 -5,0 -8,1 -2,-2 -4,-4 -7,-4 -6,-1 -10,3 -12,6 -9,3 -20,3 -31,4l-5 0c-2,0 -4,1 -5,2l-4 0c-2,-2 -4,-5 -6,-6 -2,-5 -6,-11 -14,-12 -3,0 -6,1 -8,2 -2,-1 -4,-1 -7,-1 -3,0 -7,2 -9,5 -1,0 -2,0 -3,0 -2,-1 -4,-2 -6,-2 -6,0 -13,-2 -21,-4 -7,-2 -13,-4 -19,-4 -5,-1 -9,2 -11,6 0,0 -2,0 -4,-1 -3,-1 -7,-1 -11,-1 0,-1 -1,-2 -1,-2 -1,-1 -2,-2 -2,-2 -1,-4 -4,-8 -8,-9 0,0 -1,0 -1,0 -1,-1 -1,-2 -1,-2 -2,-4 -4,-7 -5,-11 -2,-7 -3,-14 -2,-22 1,-14 7,-30 18,-47 2,-3 3,-7 2,-10 -1,-3 -3,-6 -6,-8 -5,-2 -12,-5 -19,-7 3,-1 5,-3 6,-5 1,-3 2,-5 1,-8 2,-2 4,-5 4,-9 3,-2 5,-5 6,-9 2,-28 -3,-57 -8,-84 -4,-22 -9,-44 -9,-65 1,-1 2,-1 3,-2 3,-4 3,-11 0,-15zm463 -2729c0,0 1,0 1,0 0,1 1,1 2,2 3,3 8,4 12,2l-3 8c-2,6 -3,13 -1,18 0,1 -1,3 -1,4 0,4 2,8 6,10 1,2 2,5 4,7 1,1 2,1 2,2 1,2 3,4 5,5 2,1 3,2 4,2 -1,1 -2,3 -3,4 -3,5 -9,14 -7,25 -1,3 -1,6 0,9 -18,16 -10,33 -6,43 -1,1 -1,1 -2,1 -2,3 -2,7 -1,11l-5 5c-2,2 -3,5 -3,8l0 2c-1,1 -3,1 -4,1 0,0 -1,0 -1,0 -2,-3 -5,-5 -9,-6 -5,-1 -9,2 -11,7 -1,0 -4,0 -6,-1 -4,-1 -9,-2 -14,-1 -1,-1 -3,-1 -4,-1 -25,-2 -49,4 -72,11 -6,2 -13,4 -19,5 0,0 0,0 0,0 -3,-2 -6,-2 -9,-2 -1,-1 -2,-1 -3,-1 -7,-2 -13,0 -19,3 -1,0 -1,-1 -2,-1 -3,-1 -7,0 -10,2 -4,3 -6,7 -7,11 -19,3 -39,5 -59,12 -1,-2 -3,-4 -6,-5 -5,-2 -10,-1 -14,3 -11,11 -22,13 -38,10 3,-11 7,-23 16,-36 2,-3 2,-7 1,-10 -1,-3 -3,-6 -6,-8 -5,-2 -12,-5 -19,-7 2,-1 4,-3 6,-5 2,-3 2,-5 2,-8 2,-2 3,-5 4,-9 2,-1 3,-3 4,-5 1,-1 1,-3 1,-5l0 0 0 0c0,0 0,-1 0,-2 2,-25 -2,-50 -6,-71 -1,-7 -2,-11 -4,-16 -1,-3 -2,-5 -3,-9 0,-1 -1,-3 -1,-4 0,0 2,0 2,-1 0,0 1,0 1,0 5,1 9,0 12,-1 2,3 6,4 9,5 2,0 4,0 6,-1 3,2 8,5 15,3 1,0 2,-1 3,-2 0,0 1,0 1,0 25,-9 46,-8 70,-4 4,1 8,-1 11,-4 8,-9 22,-9 35,-9 10,0 20,0 27,-5 3,-1 5,-3 6,-6 8,-1 28,1 40,3 17,2 33,4 45,3 8,1 15,-1 22,-2zm-457 737c1,-5 0,-10 -1,-14 3,-2 4,-6 5,-10 0,-1 0,-2 0,-2 2,-3 3,-7 2,-10 -1,-4 -3,-7 -7,-8 -1,-1 -1,-1 -1,-1 3,-2 5,-4 7,-6 2,-4 2,-8 0,-11 0,0 0,-1 0,-1 4,-3 10,-6 14,-13 3,-1 5,-4 6,-7 2,-7 7,-9 19,-12 7,-2 16,-4 23,-9 4,-2 7,-4 10,-6 1,0 3,0 4,0 5,-1 9,-4 10,-8 3,3 6,5 11,6l1 0c0,0 1,0 1,0 4,2 7,1 10,0 1,0 2,0 3,-1 2,-1 4,-3 6,-4 2,4 4,9 10,12 1,0 2,1 3,1 0,5 1,11 6,16 5,5 10,6 16,6l0 0c1,2 2,3 3,5 4,4 9,4 13,3 0,0 1,0 1,1 0,1 1,2 2,4 1,3 2,5 4,7 4,3 8,4 12,5l0 1c2,4 7,7 11,7 -1,11 2,20 6,29 2,5 4,9 6,14 1,2 1,3 2,5 0,1 -1,2 -1,3 0,0 0,1 0,2 -1,1 -1,2 -1,3 -1,5 0,9 2,13 -1,5 1,9 5,12 3,2 6,3 9,3 2,9 4,18 8,28 -2,2 -3,4 -4,6 -1,4 0,7 2,10 -8,-1 -16,-3 -24,-5 0,0 0,0 0,0 -4,-4 -9,-5 -14,-3l0 0c-7,-2 -15,-4 -21,-6 -4,-1 -7,0 -11,2 -2,-1 -4,-2 -6,-2 -3,-1 -5,0 -7,1 -1,0 -2,0 -2,0 -4,0 -6,2 -8,4 -1,0 -2,0 -2,0 -2,0 -6,-2 -9,-3 -4,-2 -9,-4 -14,-5 -4,0 -8,2 -11,5 -3,-1 -7,0 -11,2 -1,0 -2,1 -2,1 -3,-1 -6,-1 -9,-1 -2,0 -4,0 -6,1 -1,0 -1,0 -2,0 -3,1 -6,2 -9,3l-1 0c-1,-1 -1,-2 -2,-3 -2,-5 -8,-7 -12,-7 -5,0 -10,3 -11,8 0,0 -2,1 -3,2 0,0 -1,0 -1,1 -2,-2 -4,-4 -6,-4 -5,-1 -9,0 -13,4 -1,-2 -1,-3 -3,-5 -3,-2 -6,-3 -9,-3 -1,-1 -2,-2 -2,-3 -1,-2 -3,-4 -4,-7 -3,-11 -7,-22 -8,-32 2,-1 3,-3 4,-5 2,-4 1,-8 0,-11zm746 217c1,-6 -2,-11 -6,-15 5,-3 7,-9 5,-14 -1,-3 -4,-6 -7,-7 0,-2 0,-5 1,-7 1,-8 2,-20 -2,-29 2,-2 4,-5 4,-9 0,-19 2,-41 3,-63 1,-7 -4,-13 -11,-13 -24,-2 -48,-4 -69,-5 -2,0 -3,0 -5,1 -7,3 -15,5 -24,5 -8,0 -18,0 -22,-1 -9,-1 -22,-2 -34,8 -12,-5 -29,-10 -45,-5 -1,0 -3,-1 -4,0 -17,1 -37,2 -53,10 -5,-8 -11,-11 -17,-13 -2,-1 -3,-1 -5,-2 -4,-3 -10,-4 -15,0 -5,4 -15,5 -26,7 -8,1 -18,3 -27,5 -3,-1 -6,-2 -10,-2l0 0c-1,-2 -3,-4 -5,-5 -4,-2 -8,-2 -12,0 -23,11 -51,16 -82,16 0,-1 0,-3 -1,-4 3,-2 4,-6 5,-10 0,-6 -4,-11 -10,-12l0 0c1,-11 -1,-23 -3,-33 -2,-9 -3,-17 -3,-25 0,-5 -3,-10 -7,-12 0,0 -1,0 -1,0 0,-1 0,-2 0,-2 2,-2 3,-6 5,-10 1,-4 1,-7 1,-10 2,-3 3,-7 1,-11 0,-1 -2,-2 -2,-2 -1,-1 -1,-2 -1,-2 -4,-3 -3,-5 -3,-6 1,-3 1,-7 -1,-10 -1,-2 -2,-3 -4,-4 1,-3 1,-7 -1,-10 -9,-14 -28,-26 -45,-36l-6 -3c-9,-5 -18,-10 -26,-19 -4,-3 -7,-6 -10,-9 0,0 -1,-1 -1,-1 0,-1 1,-1 1,-1 1,-6 -2,-10 -6,-13 -4,-10 -4,-23 -4,-35l0 -5c0,-3 -1,-5 -3,-7 3,-3 5,-6 7,-9 5,-2 12,-6 12,-14 0,-3 -1,-6 -2,-8 1,-2 1,-4 1,-7 0,-3 -3,-7 -6,-9 0,-1 0,-2 0,-3 1,-2 1,-3 1,-5 0,-6 2,-13 4,-19 2,-7 4,-14 4,-20 0,-5 -2,-8 -6,-10 0,-1 0,-2 1,-3 1,-5 3,-15 -5,-23 3,-6 6,-15 3,-23 0,-1 0,-2 0,-3 -1,-6 -2,-15 -6,-24 3,-2 6,-5 9,-9 3,-2 5,-6 5,-10 0,-4 -2,-8 -5,-10 -2,-1 -3,-5 -4,-10 -1,-3 -2,-7 -4,-11l0 -1c3,-1 5,-4 6,-6 2,-4 1,-9 -2,-13 -5,-5 -8,-11 -10,-17 2,0 4,0 5,0 2,0 4,-1 7,-1 6,0 13,0 21,-5 2,1 3,1 5,1 2,3 6,5 10,5 0,0 1,0 1,0 4,0 9,-3 11,-7 1,-1 2,-2 3,-3 20,2 40,0 59,-3 15,-2 30,-4 45,-3 4,0 8,-2 10,-5 4,-6 7,-6 20,-2 7,2 16,5 25,5 4,2 9,1 13,-2 4,-3 9,-5 13,-4 5,2 11,0 14,-5 5,3 10,4 21,5 19,2 34,2 34,2l0 0c3,0 6,-1 9,-4 2,-2 4,-5 4,-9l0 -20c2,0 4,0 5,-1 5,-2 7,-8 6,-13 0,-2 0,-4 -1,-6 -1,-2 -1,-4 0,-8 0,-2 0,-3 0,-5 3,-2 4,-5 4,-8l5 -5c2,-2 3,-4 3,-7 0,-2 4,-6 6,-8 3,-4 6,-7 8,-14 1,-11 4,-23 7,-34 3,-12 7,-24 8,-37 2,-34 4,-77 -5,-104 -2,-6 -7,-10 -14,-8 -9,2 -18,4 -27,6 -2,-1 -4,-1 -7,-1 -11,2 -46,1 -56,0 0,0 -33,-3 -53,0 -2,-1 -4,-1 -6,-1 -5,0 -10,4 -12,9 -4,1 -12,0 -18,0 -18,0 -43,-1 -63,10 -38,-2 -73,0 -104,5 -4,-4 -11,-4 -16,-1 -10,0 -40,-4 -56,-6l-5 -1c-6,-1 -12,3 -14,9 -4,15 -4,35 -1,55 -5,24 1,42 7,59l2 7 12 -4 0 0 0 0 -11 5c5,17 10,32 6,46 -15,18 -5,37 2,51 8,16 8,19 3,25 -41,49 -17,99 4,142l1 2c-5,20 -2,38 2,56 4,22 7,42 -5,61 -3,5 -3,11 1,15 2,3 2,6 -7,19 -6,10 -14,22 -12,35 -10,8 -19,17 -26,27 -2,1 -4,2 -6,4 -3,4 -6,5 -10,6 -3,1 -7,2 -10,4 -5,1 -8,4 -10,8 -3,9 -9,12 -19,17 -10,5 -23,11 -30,27 -3,1 -5,2 -8,3 -8,2 -16,5 -25,10 -4,2 -6,6 -6,11 1,19 2,32 3,40 -1,2 -2,4 -2,6 0,2 1,5 2,7 -1,4 -2,9 -3,13 -4,16 -10,35 -7,50 -4,12 0,26 5,36l-11 1c-43,4 -88,8 -131,9l0 0c-3,-5 -9,-6 -14,-4l-8 3c0,0 -1,0 -1,0 -17,-6 -34,-3 -50,0 -6,1 -11,2 -16,2 -1,-3 -3,-5 -5,-7 -4,-4 -11,-4 -15,0 -2,2 -2,2 -8,-1 -5,-2 -12,-5 -20,-2 0,0 -1,1 -2,1 -1,0 -2,0 -2,0 -23,4 -47,6 -76,7 -11,0 -30,0 -46,-1l-55 -2c-2,0 -5,1 -7,2 -5,3 -8,9 -6,15 13,41 13,64 13,90 0,20 0,40 7,60 -2,3 -2,7 -1,10 9,27 8,55 7,82l-3 44c0,9 -1,31 0,49 -1,16 0,28 2,37 0,3 3,6 6,8 3,2 7,2 10,2 8,-1 15,-2 23,-3 0,1 1,1 2,2 2,2 5,3 8,3 2,0 3,0 5,-1 23,-10 37,-8 57,-4l5 1c-2,3 -3,6 -3,11 -1,6 3,12 10,13l0 0c0,3 -1,6 -2,11l0 0 0 0c-5,2 -9,7 -9,12 -1,7 2,12 5,17 0,1 0,2 0,3 4,43 5,93 5,141l0 10c0,3 0,5 3,7 1,2 1,7 1,10 0,5 1,11 3,16 -9,16 -12,36 -13,50l0 1c-16,20 -8,35 -3,43 4,7 4,8 -3,15 -3,3 -4,8 -3,12 1,4 4,7 7,8 0,3 0,9 0,13 -1,10 -2,22 2,32 -3,2 -4,6 -4,9 0,25 -2,52 -4,78 -2,22 -3,43 -4,62 0,2 0,4 1,6 6,13 5,30 4,48 -1,21 -2,43 9,62l0 2c-5,23 -11,56 -6,87 -1,2 -1,4 -1,6 1,34 3,76 14,105 -12,10 -15,22 -17,32 -1,4 -2,8 -3,12 -1,3 -1,6 0,9 5,12 6,32 8,53 1,18 3,38 7,55 -4,7 -3,15 -3,21 0,2 0,4 0,5 -2,1 -4,2 -5,4 -2,3 -3,7 -2,10 30,116 15,258 -3,357 -1,3 0,6 1,8 5,9 13,19 21,28 3,4 6,7 9,11 0,1 0,1 0,2 1,8 -2,16 -4,25 -2,7 -4,14 -5,21 -4,3 -6,9 -4,14 2,6 0,13 -2,21 -2,10 -5,22 -2,35 0,0 0,0 0,0 -1,1 -1,2 -1,3 -3,2 -5,6 -5,10 -1,40 -1,82 1,130l5 137 0 0 0 0 1 29 0 4c0,3 1,7 4,9 2,2 5,3 8,3 0,0 1,0 1,0l26 -2c27,1 55,3 85,5 91,-9 186,-2 286,7 80,6 162,13 244,11 3,0 6,-1 8,-3 29,4 59,-1 86,-5 26,-4 51,-8 69,-3 1,3 4,6 7,7 22,9 46,-1 67,-9 12,-5 28,-11 32,-8 5,4 13,3 17,-2l2 -3c3,0 5,0 6,0 5,9 18,10 26,11 10,-1 14,-5 17,-9 0,0 1,-1 4,0 10,14 35,13 61,12l2 0c0,8 -1,14 -3,17 -4,0 -8,3 -10,5 -2,-2 -4,-2 -8,-2 -6,0 -10,4 -12,9 -1,4 -1,8 -1,14l0 2c-3,1 -5,3 -7,6l-7 17c0,1 0,1 0,2 -3,-1 -6,-2 -9,-1 -23,7 -29,28 -33,43 -2,7 -5,15 -7,16 -6,2 -10,9 -8,15 2,5 6,9 12,9 1,0 3,1 5,1 1,0 3,0 5,-1 3,-1 6,-3 7,-6l34 -60c1,-1 0,-2 1,-3 2,1 3,1 5,1 2,0 4,-2 6,-3 2,11 6,18 11,21 2,1 5,2 7,2 1,1 3,2 4,4 5,4 12,10 20,10 2,0 4,0 6,-1 12,-4 17,-18 21,-32 1,-5 0,-9 -4,-12l-2 -2c0,-1 1,-1 1,-2l3 -2c3,-2 5,-6 5,-10 1,-35 5,-59 10,-85l3 -15c1,-6 -3,-12 -8,-14 -11,-3 -26,-7 -50,-9l0 0c-4,-1 -9,-2 -17,-2l-6 0c-6,0 -10,4 -11,8 -25,3 -42,1 -57,-1 -4,0 -8,-1 -11,-1l-5 -3c-6,-5 -13,-6 -21,-5 3,0 6,-1 10,-2 6,-1 11,-7 11,-13 -2,-34 -2,-68 -2,-96l0 -14c0,-32 -2,-60 -7,-86 2,-3 3,-6 3,-10 -10,-64 -7,-132 -4,-198 2,-41 4,-84 3,-125 1,-27 0,-48 -2,-71 -1,-13 -2,-27 -2,-42 2,-1 3,-3 4,-4 2,-3 2,-7 1,-10 -11,-35 -6,-72 -1,-111 5,-36 9,-74 2,-111 1,-1 1,-1 2,-2 4,-5 3,-12 -1,-16 -2,-2 -2,-11 -2,-16 0,-9 0,-20 -7,-27l1 -1c2,-4 2,-8 0,-11 -14,-25 -9,-48 -5,-75 4,-22 8,-46 4,-73 2,-3 3,-7 2,-10 -4,-15 -5,-25 -5,-33 2,-1 4,-3 5,-6 15,-39 10,-80 5,-119 -2,-14 -4,-28 -4,-42 2,0 3,-1 5,-2 4,-3 6,-9 4,-14 -6,-14 -5,-37 -4,-60 0,-14 1,-28 0,-41 3,-3 5,-8 3,-13l-2 -5c3,-2 5,-6 5,-10 0,-28 -2,-55 -4,-81 -1,-16 -3,-31 -4,-47 2,-1 3,-2 4,-3 3,-3 4,-8 3,-12 -8,-23 -6,-48 -5,-75 1,-17 2,-34 1,-51 1,-2 2,-4 2,-6 1,-30 1,-60 0,-92l-5 -95c0,-3 -2,-6 -4,-9 -2,-2 -6,-3 -9,-3l-16 1c32,-17 66,-15 102,-13 6,0 11,1 17,1 0,0 1,0 1,0 -1,6 -1,12 2,17 4,9 14,14 21,13 3,0 6,1 9,1 4,1 9,2 15,2 7,0 15,-2 22,-8 2,-2 3,-4 4,-6 2,-2 3,-4 3,-7 0,-1 1,-2 6,-6 4,-3 10,-6 13,-12 2,-3 4,-6 4,-9 0,-4 -2,-7 -5,-9 5,-3 7,-8 7,-10 1,-6 -2,-10 -5,-13 -4,-21 -4,-46 -5,-70l0 -9c0,-4 -2,-7 -4,-9 0,0 0,0 0,-1 0,-2 0,-4 -1,-6 6,-7 9,-16 11,-24 4,-3 9,-8 10,-16z"/>
 </g>
</svg>
