<svg version="1.1" id="Layer_1" xmlns="http://www.w3.org/2000/svg" x="0" y="0" viewBox="0 0 1000 1000" xml:space="preserve"><style>.st1{fill:#f9c900}</style><g id="Layer_4"><path d="M258.1 936.7h19.6v12h-52.8v-12h19.6v-73h-16.3l-6.3-11.7h35.7v84.7h.5zm69.7 12l-26.4-68.6h14.2l16.6 44.7c1.1 2.7 1.6 5.2 2.2 7.4.5-2.2 1.1-4.4 2.2-7.4l16.3-44.7h13.9l-26.4 68.6h-12.6zm96.4-12H443v12h-51.2v-12h18.8V892h-18.8v-11.7h32.4v56.4zm-.8-70c-1.6 1.6-3.5 2.5-5.7 2.5-2.5 0-4.4-.8-5.7-2.5-1.6-1.6-2.5-3.5-2.5-5.7s.8-4.1 2.5-5.7c1.6-1.6 3.5-2.5 5.7-2.5 2.5 0 4.4.8 5.7 2.5 1.6 1.6 2.5 3.5 2.5 5.7s-.9 4.1-2.5 5.7zm69.7 82l-26.4-68.6h14.2l16.6 44.7c1.1 2.7 1.6 5.2 2.2 7.4.5-2.2 1.1-4.4 2.2-7.4l16.3-44.7H532l-26.4 68.6h-12.5zm95.6-1.1c-1.9 1.9-4.4 3-7.1 3-2.7 0-5.2-1.1-7.1-3-1.9-1.9-3-4.4-3-6.8 0-2.7 1.1-4.9 3-6.8 1.9-1.9 4.4-3 7.1-3 2.7 0 5.2 1.1 7.1 3 1.9 1.9 3 4.4 3 6.8 0 2.4-1.1 4.9-3 6.8zm74.6 2.7c-13.6 0-23.1-6-28.3-18.2l11.4-5.7c1.9 3.8 4.1 6.5 6.5 8.4 2.5 1.6 6 2.7 10.3 2.7 4.6 0 8.7-1.4 11.7-4.4 3-3 4.6-8.2 4.6-15.2v-62.6h13.9v62.6c0 6.3-.8 11.7-2.7 16.1-1.9 4.6-4.4 7.9-7.4 10.1-3 2.2-6.3 3.8-9.5 4.9-3.4.8-7 1.3-10.5 1.3zm84.4 0c-7.4 0-13.9-2.2-19.6-6.3-5.7-4.1-9.8-9.5-12-16.1l12.8-4.6c1.9 4.4 4.6 7.6 8.2 10.3 3.5 2.7 7.4 3.8 12 3.8s8.2-1.1 10.9-3.5c2.7-2.5 4.1-6 4.1-10.3 0-4.1-1.6-7.4-5.2-10.3-3.3-3-8.2-5.7-13.9-8.2-3.8-1.6-6.8-3-9-4.4-2.5-1.4-4.9-3-7.9-5.4-3-2.5-4.9-4.9-6.3-7.9-1.4-3-2.2-6.3-2.2-10.1 0-6.8 2.5-12.3 7.6-16.9 5.2-4.6 11.7-6.8 20.1-6.8 6.5 0 12.3 1.6 17.2 5.2 4.9 3.3 7.9 7.9 9.5 13.1l-12.5 4.1c-1.4-2.7-3.3-5.2-5.7-6.8-2.5-1.9-5.4-2.7-9-2.7-3.8 0-7.1 1.1-9.3 3-2.5 1.9-3.5 4.6-3.5 8.2 0 1.9.5 3.3 1.4 4.9.8 1.4 2.2 2.7 4.1 4.1 1.9 1.4 3.5 2.5 5.2 3 1.6.8 3.8 1.9 6.8 3.3.3 0 .3.3.3.3h.3c.3 0 .3 0 .3.3 3.5 1.6 6.5 3.3 9 4.6 2.5 1.4 5.2 3.5 8.2 5.7 2.7 2.5 5.2 5.2 6.5 8.7 1.6 3.3 2.2 7.1 2.2 10.9 0 8.4-2.7 15-8.4 19.9-6.7 4.5-13.8 6.9-22.2 6.9z" fill="#fff"/><path class="st1" d="M466.4 509.2l.8-.3c-.5.3-1.1.3-1.6.5.3.1.6.1.8-.2zm107.3-59.6l-42.7 19 44.4-19.6c2.2-1.1 3.5-3 4.1-5.2-1.2 2.5-3.1 4.4-5.8 5.8z"/><path class="st1" d="M466.4 509.2l.8-.3c-.5.3-1.1.3-1.6.5.3.1.6.1.8-.2zm64.6-40.6l44.4-19.6c2.2-1.1 3.5-3 4.1-5.2-1.1 2.5-3 4.6-5.7 5.7L531 468.6zm123.3 146l-123.1 22.6 136.4-119L770 340.1l-64.5 204.8-51.2 69.7zM510.8 422.1l74.3-86.3-98.3 44.9z"/><path class="st1" d="M591.9 405.2l-86.6 40.6-39.5-64.3 90.7-50.9c-37.3-72.4-81.1-156.8-81.1-156.8-.5 0-150.6.5-150.6.5l4.1 13.9L366.8 397s85.5 90.1 111.6 109.2c1.1 0 125.8-56.9 125.8-56.9l-12.3-44.1z"/><path class="st1" d="M522.5 426.4l53.1-24.2 16.6-61.8zM285.9 140.8l9.5-90.4 61.8 114.1h-47.6zm227.9-71.3l-85.5 95H476l28.3-19.1zm2.2 561.4l147.6-129.1 97.2-180.5S651.6 442.5 646.7 444.6c0 0-144.9 65.3-163.6 73L516 630.9zm-15.8 15h.8l.5-.3z"/><path class="st1" d="M504.5 658.4l-41.9-147.3c-7.1-6.8-15.8-15-25.9-24.2-15.2-5.2-52.6-18-72.4-22.3-3-18-7.1-37-10.9-52.3l-.8-.8c-.5-.5-2.5-9.5-5.4-23.7-1.1-3.8-1.6-6.3-1.6-6.3l.5.5c-12.5-61-37.6-196-37.6-196l-79.2 260.3s33.2 69.4 67.5 139.7l162 144.9 150.3 27 55.3-71.3 1.6-55.8-161.5 27.6z"/></g></svg>