<?xml version="1.0" encoding="UTF-8" standalone="no"?>
<svg
   xmlns:dc="http://purl.org/dc/elements/1.1/"
   xmlns:cc="http://creativecommons.org/ns#"
   xmlns:rdf="http://www.w3.org/1999/02/22-rdf-syntax-ns#"
   xmlns:svg="http://www.w3.org/2000/svg"
   xmlns="http://www.w3.org/2000/svg"
   id="svg28"
   viewBox="0 0 1031.9106 460.79585"
   style="clip-rule:evenodd;opacity:1;fill-rule:evenodd;image-rendering:optimizeQuality;shape-rendering:geometricPrecision;text-rendering:geometricPrecision"
   version="1.1"
   height="0.46080202in"
   width="1.0319061in"
   xml:space="preserve"><metadata
   id="metadata32"><rdf:RDF><cc:Work
       rdf:about=""><dc:format>image/svg+xml</dc:format><dc:type
         rdf:resource="http://purl.org/dc/dcmitype/StillImage" /><dc:title></dc:title></cc:Work></rdf:RDF></metadata>
 <defs
   id="defs4">
  <style
   id="style2"
   type="text/css">
   
    .fil2 {fill:#2F3031;fill-rule:nonzero}
    .fil1 {fill:#FEFEFE;fill-rule:nonzero}
    .fil0 {fill:#FFCC39;fill-rule:nonzero}
   
  </style>
 
  
  
  
  
  
  
  
  
  
  
  
 </defs>
 <path
   class="fil1"
   d="m 8475.736,1695.4999 c 20,-3 40,-6 59,-10 1,2 2,4 5,6 0,0 1,0 1,0 z m 69,1946 c -1,-1 -3,-1 -5,-2 9,-2 18,-4 27,-5 -7,1 -15,4 -22,7 z m 80,-2001 c -5,1 -10,1 -15,1 -12,1 -26,1 -39,8 -6,-3 -12,-2 -15,-3 -2,0 -4,0 -4,0 -2,-3 -6,-5 -9,-6 -4,0 -7,1 -10,4 -1,1 -1,1 -3,2 -2,1 -5,3 -8,7 -39,-2 -77,2 -115,6 -29,3 -58,6 -87,6 -3,0 -5,1 -7,3 -14,12 -33,9 -53,6 -13,-2 -28,-4 -42,-2 0,0 0,0 0,0 -4,-2 -8,-2 -12,0 0,0 -1,0 -1,0 -11,6 -27,8 -39,6 -4,-1 -7,0 -10,3 l -8,7 c -56,-10 -112,-8 -166,-5 -36,1 -73,3 -109,1 -21,0 -42,-1 -62,-2 -31,-1 -60,-3 -90,-2 -29,0 -53,2 -76,5 -16,2 -28,5 -39,8 l -14,5 c -2,-1 -5,-1 -8,0 0,0 -1,0 -1,0 0,-6 1,-11 0,-17 v 0 c 2,-4 1,-8 -1,-12 -1,-2 -3,-12 -4,-18 -1,-8 -2,-16 -3,-26 -1,-17 -1,-35 -1,-53 0,-33 0,-71 -11,-107 0,-16 0,-31 0,-46 42,0 102,-2 161,-6 0,0 1,1 1,1 3,3 6,4 10,3 34,-5 68,-1 103,4 32,4 66,8 100,5 35,5 71,-1 101,-6 8,6 18,10 28,10 5,0 9,-1 13,-2 11,-3 21,-11 31,-18 12,0 27,0 41,3 10,5 21,7 32,7 9,0 18,-1 26,-3 4,4 10,8 17,8 2,0 4,0 7,-1 1,0 2,-1 3,-2 2,1 4,2 6,2 v 0 c 3,0 5,-1 7,-2 0,2 0,3 0,4 -2,3 -2,6 -1,9 2,5 8,10 14,10 h 2 c 4,-1 15,-5 14,-24 v -9 c 0,-3 0,-5 0,-7 6,1 11,2 17,5 86,37 171,16 252,-5 l 7,-2 c 29,4 59,3 86,1 14,-1 52,-5 85,-5 -1,25 -5,47 -10,62 -1,3 -1,6 1,9 7,16 1,34 -7,54 -7,19 -14,38 -11,58 0,2 1,3 1,4 0,9 6,17 9,22 v 0 c -8,4 -9,11 -9,14 0,4 2,7 4,9 -5,3 -8,9 -10,15 -1,0 -2,0 -3,0 -1,-2 -3,-5 -5,-6 -13,-6 -23,0 -30,4 0,0 -1,1 -1,1 -2,-2 -4,-4 -7,-6 -5,-2 -10,-1 -12,0 -1,0 -2,-1 -2,-1 -1,0 -3,0 -4,0 z m -100,136 c 0,1 -1,1 -1,1 -2,5 -1,9 0,12 6,24 8,57 5,82 0,2 0,4 1,6 l 9,21 c -13,103 -12,210 -12,312 0,68 0,138 -3,206 -1,39 -3,77 -5,115 -7,148 -13,288 10,438 -2,2 -3,5 -2,8 2,27 1,53 0,78 -1,24 -2,48 0,73 -1,2 -2,5 -2,8 10,63 9,129 8,194 -1,67 -1,137 10,200 l -1,52 c -37,2 -74,4 -117,7 l -44,3 c -19,1 -40,2 -62,4 h -2 c 0,-1 0,-2 0,-3 0,-6 0,-14 -5,-22 1,-1 1,-3 1,-5 3,-2 5,-6 6,-10 0,-5 -3,-10 -7,-12 -1,-1 -2,-2 -3,-3 2,-20 0,-40 -2,-59 -2,-16 -3,-30 -3,-45 0,-4 -2,-8 -5,-10 -6,-5 -6,-7 -2,-20 2,-7 5,-15 5,-24 2,-4 2,-10 -2,-14 -3,-4 -5,-9 -3,-13 2,-5 0,-11 -4,-14 l -2,-2 c 10,-29 10,-57 10,-85 0,-20 0,-39 3,-59 l 6,-54 c 2,-21 4,-43 5,-64 0,-3 -1,-7 -3,-9 -2,-2 -5,-4 -9,-4 -23,-1 -46,0 -69,2 -12,2 -23,4 -34,6 -6,1 -11,3 -15,5 -2,-1 -5,-1 -7,0 -6,2 -18,1 -26,0 -5,-1 -10,-1 -14,-1 -1,0 -2,0 -2,0 -5,0 -9,2 -11,6 -3,1 -14,3 -46,2 -31,-1 -52,2 -65,10 l -26,-1 c -3,1 -6,1 -9,3 -2,2 -4,5 -4,9 0,18 0,95 2,117 0,7 0,23 1,41 0,30 0,49 1,61 -2,2 -3,5 -3,8 0,2 0,3 1,4 -4,10 -13,28 -8,52 -5,21 3,37 9,50 6,12 10,21 6,35 -16,18 -4,36 2,46 8,12 7,12 2,17 -17,21 -24,35 -22,63 0,3 1,6 1,8 -58,-1 -113,-2 -170,5 -19,-1 -41,-1 -61,0 -1,-7 -3,-13 -4,-20 -3,-10 -5,-21 -6,-35 l -11,-82 c -4,-51 -9,-108 -3,-161 12,-44 5,-93 -2,-141 -7,-47 -13,-91 -2,-128 36,-155 15,-303 -7,-459 l -3,-17 c 6,-65 3,-131 -1,-195 -4,-83 -8,-162 6,-241 0,-2 0,-4 0,-5 -9,-35 -2,-72 6,-112 6,-33 13,-67 11,-102 0,-2 -1,-4 -2,-6 2,-13 -3,-26 -7,-36 -4,-9 -5,-14 -5,-17 3,0 5,-2 7,-4 15,-16 -2,-34 -10,-41 -1,-1 -3,-2 -4,-4 1,-2 1,-4 1,-6 0,-2 -1,-3 -1,-5 3,-3 4,-7 4,-10 0,-2 0,-3 0,-5 0,-2 -1,-4 -2,-5 l 1,-1 c 3,-3 4,-7 5,-11 4,2 7,3 9,3 0,0 1,0 1,0 10,-1 16,-10 21,-17 0,-1 1,-2 2,-2 0,0 1,0 1,0 0,0 0,1 0,1 3,2 7,3 11,3 2,0 5,-1 8,-2 1,4 4,7 8,9 16,5 30,1 42,-3 7,-2 13,-4 18,-4 0,1 0,1 0,1 2,4 5,7 9,7 5,1 12,2 17,-2 3,2 6,4 9,3 10,-1 21,-1 31,-1 25,0 51,0 75,-8 8,5 18,5 27,5 8,0 17,0 20,3 4,3 9,4 14,2 2,-1 5,-2 8,-3 5,-1 10,-3 15,-7 75,4 151,1 225,-1 53,-2 107,-4 161,-3 3,0 3,0 4,-1 16,-6 33,-9 54,-9 12,0 22,1 31,3 -1,5 -1,9 -1,14 0,6 0,11 0,19 z m -494,1495 v 0 c 4,-11 1,-21 -2,-29 0,0 0,-1 0,-1 1,-1 2,-1 3,-2 3,-2 4,-6 4,-10 0,-2 0,-3 -1,-5 2,-3 5,-8 3,-15 0,-1 -1,-2 -2,-3 v 0 c -8,-28 -8,-40 -5,-50 1,-4 1,-7 -1,-11 v 0 c 7,0 14,-1 20,-5 3,0 6,0 8,-2 14,-8 30,-6 48,-3 12,2 25,4 38,3 9,1 16,-1 23,-2 1,0 2,0 3,-1 1,2 3,3 6,4 5,2 10,0 13,-3 2,-2 6,-6 16,1 l 3,2 c 9,5 16,7 26,3 1,0 2,1 3,1 4,0 7,-1 10,-4 v 0 c 1,0 3,0 4,0 v 0 l -2,5 c -3,6 -7,15 -4,23 -1,2 0,5 0,7 -18,16 -10,35 -5,45 v 1 c -2,1 -4,3 -5,6 -2,5 0,12 4,15 0,1 0,5 0,7 0,2 -1,5 -1,7 -1,1 -1,2 -2,3 0,1 -1,1 -1,2 -2,2 -3,5 -3,8 -1,10 2,19 5,28 0,1 0,2 1,2 -2,1 -4,3 -5,6 -2,5 -1,11 3,14 3,2 3,3 2,12 -1,4 -2,8 -1,13 -1,1 -1,3 -1,5 -2,26 4,49 10,72 2,7 4,14 5,21 -1,1 -1,2 -1,4 0,1 0,2 0,3 -1,1 -1,3 -2,4 -2,7 0,13 3,19 0,1 -1,1 -1,2 -1,4 -1,7 2,10 3,4 7,6 11,7 v 2 c 3,19 5,39 11,58 -2,1 -4,3 -5,5 -2,5 -1,10 2,14 10,10 12,19 11,32 -11,1 -21,1 -31,2 0,-1 -1,-1 -1,-1 h -1 v 0 0 c -1,-1 -2,-1 -3,-1 -1,0 -2,-1 -3,-1 -3,-1 -5,0 -8,1 -2,-2 -4,-4 -7,-4 -6,-1 -10,3 -12,6 -9,3 -20,3 -31,4 h -5 c -2,0 -4,1 -5,2 h -4 c -2,-2 -4,-5 -6,-6 -2,-5 -6,-11 -14,-12 -3,0 -6,1 -8,2 -2,-1 -4,-1 -7,-1 -3,0 -7,2 -9,5 -1,0 -2,0 -3,0 -2,-1 -4,-2 -6,-2 -6,0 -13,-2 -21,-4 -7,-2 -13,-4 -19,-4 -5,-1 -9,2 -11,6 0,0 -2,0 -4,-1 -3,-1 -7,-1 -11,-1 0,-1 -1,-2 -1,-2 -1,-1 -2,-2 -2,-2 -1,-4 -4,-8 -8,-9 0,0 -1,0 -1,0 -1,-1 -1,-2 -1,-2 -2,-4 -4,-7 -5,-11 -2,-7 -3,-14 -2,-22 1,-14 7,-30 18,-47 2,-3 3,-7 2,-10 -1,-3 -3,-6 -6,-8 -5,-2 -12,-5 -19,-7 3,-1 5,-3 6,-5 1,-3 2,-5 1,-8 2,-2 4,-5 4,-9 3,-2 5,-5 6,-9 2,-28 -3,-57 -8,-84 -4,-22 -9,-44 -9,-65 1,-1 2,-1 3,-2 3,-4 3,-11 0,-15 z m 463,-2729.00002 c 0,0 1,0 1,0 0,1 1,1 2,2 3,3 8,4 12,2 l -3,8 c -2,6 -3,13 -1,18 0,1 -1,3 -1,4 0,4 2,8 6,10 1,2 2,5 4,7 1,1 2,1 2,2 1,2 3,4 5,5 2,1 3,2 4,2 -1,1 -2,3 -3,4 -3,5 -9,14 -7,25 -1,3 -1,6 0,9 -18,16 -10,33 -6,43 -1,1 -1,1 -2,1 -2,3 -2,7 -1,11 l -5,5 c -2,2 -3,5 -3,8 v 2 c -1,1 -3,1 -4,1 0,0 -1,0 -1,0 -2,-3 -5,-5 -9,-6 -5,-1 -9,2 -11,7 -1,0 -4,0 -6,-1 -4,-1 -9,-2 -14,-1 -1,-1 -3,-1 -4,-1 -25,-2 -49,4 -72,11 -6,2 -13,4 -19,5 0,0 0,0 0,0 -3,-2 -6,-2 -9,-2 -1,-1 -2,-1 -3,-1 -7,-2 -13,0 -19,3 -1,0 -1,-1 -2,-1 -3,-1 -7,0 -10,2 -4,3 -6,7 -7,11 -19,3 -39,5 -59,12 -1,-2 -3,-4 -6,-5 -5,-2 -10,-1 -14,3 -11,11 -22,13 -38,10 3,-11 7,-23 16,-36 2,-3 2,-7 1,-10 -1,-3 -3,-6 -6,-8 -5,-2 -12,-5 -19,-7 2,-1 4,-3 6,-5 2,-3 2,-5 2,-8 2,-2 3,-5 4,-9 2,-1 3,-3 4,-5 1,-1 1,-3 1,-5 v 0 0 c 0,0 0,-1 0,-2 2,-25 -2,-50 -6,-71 -1,-7 -2,-11 -4,-16 -1,-3 -2,-5 -3,-9 0,-1 -1,-3 -1,-4 0,0 2,0 2,-1 0,0 1,0 1,0 5,1 9,0 12,-1 2,3 6,4 9,5 2,0 4,0 6,-1 3,2 8,5 15,3 1,0 2,-1 3,-2 0,0 1,0 1,0 25,-9 46,-8 70,-4 4,1 8,-1 11,-4 8,-9 22,-9 35,-9 10,0 20,0 27,-5 3,-1 5,-3 6,-6 8,-1 28,1 40,3 17,2 33,4 45,3 8,1 15,-1 22,-2 z m -457,737.00002 c 1,-5 0,-10 -1,-14 3,-2 4,-6 5,-10 0,-1 0,-2 0,-2 2,-3 3,-7 2,-10 -1,-4 -3,-7 -7,-8 -1,-1 -1,-1 -1,-1 3,-2 5,-4 7,-6 2,-4 2,-8 0,-11 0,0 0,-1 0,-1 4,-3 10,-6 14,-13 3,-1 5,-4 6,-7 2,-7 7,-9 19,-12 7,-2 16,-4 23,-9 4,-2 7,-4 10,-6 1,0 3,0 4,0 5,-1 9,-4 10,-8 3,3 6,5 11,6 h 1 c 0,0 1,0 1,0 4,2 7,1 10,0 1,0 2,0 3,-1 2,-1 4,-3 6,-4 2,4 4,9 10,12 1,0 2,1 3,1 0,5 1,11 6,16 5,5 10,6 16,6 v 0 c 1,2 2,3 3,5 4,4 9,4 13,3 0,0 1,0 1,1 0,1 1,2 2,4 1,3 2,5 4,7 4,3 8,4 12,5 v 1 c 2,4 7,7 11,7 -1,11 2,20 6,29 2,5 4,9 6,14 1,2 1,3 2,5 0,1 -1,2 -1,3 0,0 0,1 0,2 -1,1 -1,2 -1,3 -1,5 0,9 2,13 -1,5 1,9 5,12 3,2 6,3 9,3 2,9 4,18 8,28 -2,2 -3,4 -4,6 -1,4 0,7 2,10 -8,-1 -16,-3 -24,-5 0,0 0,0 0,0 -4,-4 -9,-5 -14,-3 v 0 c -7,-2 -15,-4 -21,-6 -4,-1 -7,0 -11,2 -2,-1 -4,-2 -6,-2 -3,-1 -5,0 -7,1 -1,0 -2,0 -2,0 -4,0 -6,2 -8,4 -1,0 -2,0 -2,0 -2,0 -6,-2 -9,-3 -4,-2 -9,-4 -14,-5 -4,0 -8,2 -11,5 -3,-1 -7,0 -11,2 -1,0 -2,1 -2,1 -3,-1 -6,-1 -9,-1 -2,0 -4,0 -6,1 -1,0 -1,0 -2,0 -3,1 -6,2 -9,3 h -1 c -1,-1 -1,-2 -2,-3 -2,-5 -8,-7 -12,-7 -5,0 -10,3 -11,8 0,0 -2,1 -3,2 0,0 -1,0 -1,1 -2,-2 -4,-4 -6,-4 -5,-1 -9,0 -13,4 -1,-2 -1,-3 -3,-5 -3,-2 -6,-3 -9,-3 -1,-1 -2,-2 -2,-3 -1,-2 -3,-4 -4,-7 -3,-11 -7,-22 -8,-32 2,-1 3,-3 4,-5 2,-4 1,-8 0,-11 z m 746,217 c 1,-6 -2,-11 -6,-15 5,-3 7,-9 5,-14 -1,-3 -4,-6 -7,-7 0,-2 0,-5 1,-7 1,-8 2,-20 -2,-29 2,-2 4,-5 4,-9 0,-19 2,-41 3,-63 1,-7 -4,-13 -11,-13 -24,-2 -48,-4 -69,-5 -2,0 -3,0 -5,1 -7,3 -15,5 -24,5 -8,0 -18,0 -22,-1 -9,-1 -22,-2 -34,8 -12,-5 -29,-10 -45,-5 -1,0 -3,-1 -4,0 -17,1 -37,2 -53,10 -5,-8 -11,-11 -17,-13 -2,-1 -3,-1 -5,-2 -4,-3 -10,-4 -15,0 -5,4 -15,5 -26,7 -8,1 -18,3 -27,5 -3,-1 -6,-2 -10,-2 v 0 c -1,-2 -3,-4 -5,-5 -4,-2 -8,-2 -12,0 -23,11 -51,16 -82,16 0,-1 0,-3 -1,-4 3,-2 4,-6 5,-10 0,-6 -4,-11 -10,-12 v 0 c 1,-11 -1,-23 -3,-33 -2,-9 -3,-17 -3,-25 0,-5 -3,-10 -7,-12 0,0 -1,0 -1,0 0,-1 0,-2 0,-2 2,-2 3,-6 5,-10 1,-4 1,-7 1,-10 2,-3 3,-7 1,-11 0,-1 -2,-2 -2,-2 -1,-1 -1,-2 -1,-2 -4,-3 -3,-5 -3,-6 1,-3 1,-7 -1,-10 -1,-2 -2,-3 -4,-4 1,-3 1,-7 -1,-10 -9,-14 -28,-26 -45,-36 l -6,-3 c -9,-5 -18,-10 -26,-19 -4,-3 -7,-6 -10,-9 0,0 -1,-1 -1,-1 0,-1 1,-1 1,-1 1,-6 -2,-10 -6,-13 -4,-10 -4,-23 -4,-35 v -5 c 0,-3 -1,-5 -3,-7 3,-3 5,-6 7,-9 5,-2 12,-6 12,-14 0,-3 -1,-6 -2,-8 1,-2 1,-4 1,-7 0,-3 -3,-7 -6,-9 0,-1 0,-2 0,-3 1,-2 1,-3 1,-5 0,-6 2,-13.00002 4,-19.00002 2,-7 4,-14 4,-20 0,-5 -2,-8 -6,-10 0,-1 0,-2 1,-3 1,-5 3,-15 -5,-23 3,-6 6,-15 3,-23 0,-1 0,-2 0,-3 -1,-6 -2,-15 -6,-24 3,-2 6,-5 9,-9 3,-2 5,-6 5,-10 0,-4 -2,-8 -5,-10 -2,-1 -3,-5 -4,-10 -1,-3 -2,-7 -4,-11 v -1 c 3,-1 5,-4 6,-6 2,-4 1,-9 -2,-13 -5,-5 -8,-11 -10,-17 2,0 4,0 5,0 2,0 4,-1 7,-1 6,0 13,0 21,-5 2,1 3,1 5,1 2,3 6,5 10,5 0,0 1,0 1,0 4,0 9,-3 11,-7 1,-1 2,-2 3,-3 20,2 40,0 59,-3 15,-2 30,-4 45,-3 4,0 8,-2 10,-5 4,-6 7,-6 20,-2 7,2 16,5 25,5 4,2 9,1 13,-2 4,-3 9,-5 13,-4 5,2 11,0 14,-5 5,3 10,4 21,5 19,2 34,2 34,2 v 0 c 3,0 6,-1 9,-4 2,-2 4,-5 4,-9 v -20 c 2,0 4,0 5,-1 5,-2 7,-8 6,-13 0,-2 0,-4 -1,-6 -1,-2 -1,-4 0,-8 0,-2 0,-3 0,-5 3,-2 4,-5 4,-8 l 5,-5 c 2,-2 3,-4 3,-7 0,-2 4,-6 6,-8 3,-4 6,-7 8,-14 1,-11 4,-23 7,-34 3,-12 7,-24 8,-37 2,-34 4,-77 -5,-104 -2,-6 -7,-10 -14,-8 -9,2 -18,4 -27,6 -2,-1 -4,-1 -7,-1 -11,2 -46,1 -56,0 0,0 -33,-3 -53,0 -2,-1 -4,-1 -6,-1 -5,0 -10,4 -12,9 -4,1 -12,0 -18,0 -18,0 -43,-1 -63,10 -38,-2 -73,0 -104,5 -4,-4 -11,-4 -16,-1 -10,0 -40,-4 -56,-6 l -5,-1 c -6,-1 -12,3 -14,9 -4,15 -4,35 -1,55 -5,24 1,42 7,59 l 2,7 12,-4 v 0 0 l -11,5 c 5,17 10,32 6,46 -15,18 -5,37 2,51 8,16 8,19 3,25 -41,49 -17,99 4,142 l 1,2 c -5,20 -2,38 2,56 4,22 7,42.00002 -5,61.00002 -3,5 -3,11 1,15 2,3 2,6 -7,19 -6,10 -14,22 -12,35 -10,8 -19,17 -26,27 -2,1 -4,2 -6,4 -3,4 -6,5 -10,6 -3,1 -7,2 -10,4 -5,1 -8,4 -10,8 -3,9 -9,12 -19,17 -10,5 -23,11 -30,27 -3,1 -5,2 -8,3 -8,2 -16,5 -25,10 -4,2 -6,6 -6,11 1,19 2,32 3,40 -1,2 -2,4 -2,6 0,2 1,5 2,7 -1,4 -2,9 -3,13 -4,16 -10,35 -7,50 -4,12 0,26 5,36 l -11,1 c -43,4 -88,8 -131,9 v 0 c -3,-5 -9,-6 -14,-4 l -8,3 c 0,0 -1,0 -1,0 -17,-6 -34,-3 -50,0 -6,1 -11,2 -16,2 -1,-3 -3,-5 -5,-7 -4,-4 -11,-4 -15,0 -2,2 -2,2 -8,-1 -5,-2 -12,-5 -20,-2 0,0 -1,1 -2,1 -1,0 -2,0 -2,0 -23,4 -47,6 -76,7 -11,0 -30,0 -46,-1 l -55,-2 c -2,0 -5,1 -7,2 -5,3 -8,9 -6,15 13,41 13,64 13,90 0,20 0,40 7,60 -2,3 -2,7 -1,10 9,27 8,55 7,82 l -3,44 c 0,9 -1,31 0,49 -1,16 0,28 2,37 0,3 3,6 6,8 3,2 7,2 10,2 8,-1 15,-2 23,-3 0,1 1,1 2,2 2,2 5,3 8,3 2,0 3,0 5,-1 23,-10 37,-8 57,-4 l 5,1 c -2,3 -3,6 -3,11 -1,6 3,12 10,13 v 0 c 0,3 -1,6 -2,11 v 0 0 c -5,2 -9,7 -9,12 -1,7 2,12 5,17 0,1 0,2 0,3 4,43 5,93 5,141 v 10 c 0,3 0,5 3,7 1,2 1,7 1,10 0,5 1,11 3,16 -9,16 -12,36 -13,50 v 1 c -16,20 -8,35 -3,43 4,7 4,8 -3,15 -3,3 -4,8 -3,12 1,4 4,7 7,8 0,3 0,9 0,13 -1,10 -2,22 2,32 -3,2 -4,6 -4,9 0,25 -2,52 -4,78 -2,22 -3,43 -4,62 0,2 0,4 1,6 6,13 5,30 4,48 -1,21 -2,43 9,62 v 2 c -5,23 -11,56 -6,87 -1,2 -1,4 -1,6 1,34 3,76 14,105 -12,10 -15,22 -17,32 -1,4 -2,8 -3,12 -1,3 -1,6 0,9 5,12 6,32 8,53 1,18 3,38 7,55 -4,7 -3,15 -3,21 0,2 0,4 0,5 -2,1 -4,2 -5,4 -2,3 -3,7 -2,10 30,116 15,258 -3,357 -1,3 0,6 1,8 5,9 13,19 21,28 3,4 6,7 9,11 0,1 0,1 0,2 1,8 -2,16 -4,25 -2,7 -4,14 -5,21 -4,3 -6,9 -4,14 2,6 0,13 -2,21 -2,10 -5,22 -2,35 0,0 0,0 0,0 -1,1 -1,2 -1,3 -3,2 -5,6 -5,10 -1,40 -1,82 1,130 l 5,137 v 0 0 l 1,29 v 4 c 0,3 1,7 4,9 2,2 5,3 8,3 0,0 1,0 1,0 l 26,-2 c 27,1 55,3 85,5 91,-9 186,-2 286,7 80,6 162,13 244,11 3,0 6,-1 8,-3 29,4 59,-1 86,-5 26,-4 51,-8 69,-3 1,3 4,6 7,7 22,9 46,-1 67,-9 12,-5 28,-11 32,-8 5,4 13,3 17,-2 l 2,-3 c 3,0 5,0 6,0 5,9 18,10 26,11 10,-1 14,-5 17,-9 0,0 1,-1 4,0 10,14 35,13 61,12 h 2 c 0,8 -1,14 -3,17 -4,0 -8,3 -10,5 -2,-2 -4,-2 -8,-2 -6,0 -10,4 -12,9 -1,4 -1,8 -1,14 v 2 c -3,1 -5,3 -7,6 l -7,17 c 0,1 0,1 0,2 -3,-1 -6,-2 -9,-1 -23,7 -29,28.0003 -33,43.0003 -2,7 -5,15 -7,16 -6,2 -10,9 -8,15 2,5 6,9 12,9 1,0 3,1 5,1 1,0 3,0 5,-1 3,-1 6,-3 7,-6 l 34,-60 c 1,-1 0,-2 1,-3 2,1 3,1 5,1 2,0 4,-2 6,-3 2,11 6,18 11,21 2,1 5,2 7,2 1,1 3,2 4,4 5,4 12,10 20,10 2,0 4,0 6,-1 12,-4 17,-18 21,-32 1,-5 0,-9.0003 -4,-12.0003 l -2,-2 c 0,-1 1,-1 1,-2 l 3,-2 c 3,-2 5,-6 5,-10 1,-35 5,-59 10,-85 l 3,-15 c 1,-6 -3,-12 -8,-14 -11,-3 -26,-7 -50,-9 v 0 c -4,-1 -9,-2 -17,-2 h -6 c -6,0 -10,4 -11,8 -25,3 -42,1 -57,-1 -4,0 -8,-1 -11,-1 l -5,-3 c -6,-5 -13,-6 -21,-5 3,0 6,-1 10,-2 6,-1 11,-7 11,-13 -2,-34 -2,-68 -2,-96 v -14 c 0,-32 -2,-60 -7,-86 2,-3 3,-6 3,-10 -10,-64 -7,-132 -4,-198 2,-41 4,-84 3,-125 1,-27 0,-48 -2,-71 -1,-13 -2,-27 -2,-42 2,-1 3,-3 4,-4 2,-3 2,-7 1,-10 -11,-35 -6,-72 -1,-111 5,-36 9,-74 2,-111 1,-1 1,-1 2,-2 4,-5 3,-12 -1,-16 -2,-2 -2,-11 -2,-16 0,-9 0,-20 -7,-27 l 1,-1 c 2,-4 2,-8 0,-11 -14,-25 -9,-48 -5,-75 4,-22 8,-46 4,-73 2,-3 3,-7 2,-10 -4,-15 -5,-25 -5,-33 2,-1 4,-3 5,-6 15,-39 10,-80 5,-119 -2,-14 -4,-28 -4,-42 2,0 3,-1 5,-2 4,-3 6,-9 4,-14 -6,-14 -5,-37 -4,-60 0,-14 1,-28 0,-41 3,-3 5,-8 3,-13 l -2,-5 c 3,-2 5,-6 5,-10 0,-28 -2,-55 -4,-81 -1,-16 -3,-31 -4,-47 2,-1 3,-2 4,-3 3,-3 4,-8 3,-12 -8,-23 -6,-48 -5,-75 1,-17 2,-34 1,-51 1,-2 2,-4 2,-6 1,-30 1,-60 0,-92 l -5,-95 c 0,-3 -2,-6 -4,-9 -2,-2 -6,-3 -9,-3 l -16,1 c 32,-17 66,-15 102,-13 6,0 11,1 17,1 0,0 1,0 1,0 -1,6 -1,12 2,17 4,9 14,14 21,13 3,0 6,1 9,1 4,1 9,2 15,2 7,0 15,-2 22,-8 2,-2 3,-4 4,-6 2,-2 3,-4 3,-7 0,-1 1,-2 6,-6 4,-3 10,-6 13,-12 2,-3 4,-6 4,-9 0,-4 -2,-7 -5,-9 5,-3 7,-8 7,-10 1,-6 -2,-10 -5,-13 -4,-21 -4,-46 -5,-70 v -9 c 0,-4 -2,-7 -4,-9 0,0 0,0 0,-1 0,-2 0,-4 -1,-6 6,-7 9,-16 11,-24 4,-3 9,-8 10,-16 z"
   id="path15"
   style="opacity:1;fill:#ffffff;fill-rule:nonzero" /><path
   class="fil2"
   d="M 15.420013,162.76818 54.679495,87.749779 1.7974224,153.21118 Z M 1031.8164,267.86998 v 0 l -154.39003,23.6502 -45.31372,83.7214 61.11208,7.1887 138.68587,-114.5603 z M 547.55127,-0.04312129 v 0 l -11.91859,59.59940029 93.8435,55.718701 88.73588,3.9769 L 691.15687,84.248679 547.45752,0.05197871 Z M 0,157.84728 8.2302994,316.49328 25.636926,333.80408 11.919764,176.76668 0,157.94048 Z m 564.95827,299.699 34.52941,-0.081 24.12349,-12.2072 -8.9868,-30.9344 -38.31396,-24.7843 -11.25641,68.0196 z m -98.47958,-114.0895 25.82618,48.4359 33.96146,57.5147 31.31334,7.6653 31.40717,-186.8379 z m -301.49394,115.1263 95.0741,2.1778 -0.94612,-23.1792 -38.69169,-52.692 z m 40.58369,-314.546 -188.256404,31.1236 35.475406,69.7207 152.875748,-100.8443 z m -154.767609,111.252 109.453579,179.1746 56.66613,-58.561 23.27191,-126.5753 -22.04209,-99.7123 -167.349529,105.767 z m 383.702409,78.8956 -4.91866,-37.748 -151.55171,24.4102 156.56519,13.3378 z m -202.54102,-186.6499 23.93401,99.5241 -23.08249,70.7566 194.68933,-32.5385 -45.22,-155.5244 z M 73.221394,72.896079 c 0,0 -46.733032,89.397201 -43.989605,89.207701 2.74343,-0.1882 192.419061,-25.8272 192.419061,-25.8272 l 21.56878,-78.044101 -170.092888,14.7586 z m 177.566456,-14.3768 -21.47452,79.933801 152.96974,-18.92 11.25792,-66.977801 -142.84786,6.054 z m 189.95936,242.363401 12.29778,36.2364 172.83578,-94.983 z M 636.19285,231.92278 528.91578,68.450179 387.58138,127.38588 436.3009,291.89718 Z M 405.36635,48.676579 388.90566,120.76558 529.19909,60.031579 541.21323,1.3776787 405.46139,48.676579 Z m 128.94136,17.5029 82.68072,124.496401 9.27127,-69.6283 z M 673.845,226.14988 l -3.97431,-14.5671 -44.93507,-2.8387 23.55522,26.9592 25.25875,-9.4576 z m 13.43335,-97.9116 -57.13955,-4.6344 -5.2986,72.0838 61.86914,-63.6635 m -57.61108,69.8127 44.17897,5.6779 33.58288,-22.2345 -6.33804,-54.3966 -71.51872,70.9532 z m 77.47833,-65.8417 6.71671,48.8132 15.13643,-7.7604 8.89297,-50.9879 -30.84124,9.9351 z m 76.91176,-4.3514 -11.25838,-35.380001 -19.86637,7.186301 -14.56877,61.6839 z m -34.90901,-16.7449 -46.16534,-76.344001 -15.13565,31.9774 45.78695,48.435001 z m 11.54139,-18.635101 16.93397,-77.6667 -46.06977,-5.5858 17.12188,85.1436 11.91894,-1.8911 z m -21.47513,193.456701 -47.58302,-12.8626 9.74295,40.2036 37.84007,-27.2463 z m 96.96732,-66.5048 -47.58517,-81.7344 -106.8989,70.1015 9.08163,54.2069 60.35593,21.1884 85.1408,-63.6686 z m 25.06858,67.7377 -24.59553,-51.0878 -132.82072,84.289 157.41625,-33.2962 z m 23.46111,93.9363 -57.89619,-1.7947 -0.85064,24.3097 58.65277,-22.4234 z m -6.05345,-143.7925 -37.08402,-10.0287 27.90646,57.3261 z m -166.49948,92.6119 105.38574,71.5194 1.0411,-21.4726 49.66572,-86.8447 -156.18664,36.8929 z"
   id="path17"
   style="opacity:1;fill:#000000;fill-rule:nonzero;stroke-width:0.09460115" />
</svg>