<svg version="1.1" id="Layer_1" xmlns="http://www.w3.org/2000/svg" x="0" y="0" viewBox="0 0 245.8 900" xml:space="preserve"><style>.st0,.st1{fill:none}.st1{stroke:rgba(255,255,255,.5);stroke-miterlimit:10}</style><pattern y="900" width="737.3" height="896.2" patternUnits="userSpaceOnUse" id="New_Pattern_2" viewBox="0 -896.2 737.3 896.2" overflow="visible"><path class="st0" d="M0-896.2h737.3V0H0z"/><path class="st1" d="M788.7-96.2v60l-50.4-30zm-262-765.5h49.8v51.4h-49.8zm145.1 192.1h39.1v40.3h-39.1zm-137.7-43.6h39.1v40.3h-39.1zm17.5 498.7h49.8v51.4h-49.8zm45.9 126.8h37.8v39h-37.8z"/><ellipse class="st1" cx="620.9" cy="-613.7" rx="19.6" ry="20.2"/><ellipse class="st1" cx="620.9" cy="-765.7" rx="19.6" ry="20.2"/><ellipse class="st1" cx="680.5" cy="-129.7" rx="25.4" ry="26.2"/><ellipse class="st1" cx="536" cy="-316.4" rx="35.2" ry="36.3"/><ellipse class="st1" cx="671.5" cy="-868.5" rx="20.3" ry="21"/><ellipse class="st1" cx="672.3" cy="-504.6" rx="22" ry="22.7"/><path class="st1" d="M576-582.9l-19.7 35.1H517l-19.6-35.1 19.6-35.2h39.3zM710.8-374l-19.6 35.2h-39.4L632.1-374l19.7-35.1h39.4zm-110.7-59.5H542l29.1-51.9zm113.3 205.9h-58.1l29-52zm-33.1-516.2v-60l50.3 30zM542.9-96.2v60l-50.4-30zm-262-765.5h49.8v51.4h-49.8zM426-669.6h39.1v40.3H426zm-137.7-43.6h39.1v40.3h-39.1zm17.5 498.7h49.8v51.4h-49.8zm45.9 126.8h37.8v39h-37.8z"/><ellipse class="st1" cx="375.1" cy="-613.7" rx="19.6" ry="20.2"/><ellipse class="st1" cx="375.1" cy="-765.7" rx="19.6" ry="20.2"/><ellipse class="st1" cx="434.8" cy="-129.7" rx="25.4" ry="26.2"/><ellipse class="st1" cx="290.2" cy="-316.4" rx="35.2" ry="36.3"/><ellipse class="st1" cx="425.7" cy="-868.5" rx="20.3" ry="21"/><ellipse class="st1" cx="426.5" cy="-504.6" rx="22" ry="22.7"/><path class="st1" d="M330.2-582.9l-19.6 35.1h-39.4l-19.6-35.1 19.6-35.2h39.4zM465.1-374l-19.7 35.2H406L386.4-374l19.6-35.1h39.4zm-110.8-59.5h-58.1l29.1-51.9zm113.3 205.9h-58.1l29.1-52zm-33.1-516.2v-60l50.3 30zM297.1-96.2v60l-50.3-30zm-262-765.5h49.8v51.4H35.1zm145.1 192.1h39.1v40.3h-39.1zM42.5-713.2h39.1v40.3H42.5zM60-214.5h49.8v51.4H60zm45.9 126.8h37.8v39h-37.8z"/><ellipse class="st1" cx="129.4" cy="-613.7" rx="19.6" ry="20.2"/><ellipse class="st1" cx="129.4" cy="-765.7" rx="19.6" ry="20.2"/><ellipse class="st1" cx="189" cy="-129.7" rx="25.4" ry="26.2"/><ellipse class="st1" cx="44.4" cy="-316.4" rx="35.2" ry="36.3"/><ellipse class="st1" cx="179.9" cy="-868.5" rx="20.3" ry="21"/><ellipse class="st1" cx="180.7" cy="-504.6" rx="22" ry="22.7"/><path class="st1" d="M84.5-582.9l-19.7 35.1H25.4L5.8-582.9l19.6-35.2h39.4zM219.3-374l-19.7 35.2h-39.3L140.6-374l19.7-35.1h39.3zm-110.8-59.5h-58l29-51.9zm113.3 205.9h-58l29-52zm-33.1-516.2v-60l50.4 30zM51.3-96.2v60L1-66.2z"/></pattern><path d="M0 0h245.8v900H0z" id="Layer_1_1_"/><path class="st0" d="M0 1.9h245.8v896.2H0z"/><path class="st1" d="M35.1 36.5h49.8v51.4H35.1zm145.1 192h39.1v40.3h-39.1zM42.5 184.9h39.1v40.3H42.5zM60 683.6h49.8V735H60zm45.9 126.8h37.8v39h-37.8z"/><ellipse class="st1" cx="129.4" cy="284.4" rx="19.6" ry="20.2"/><ellipse class="st1" cx="129.4" cy="132.5" rx="19.6" ry="20.2"/><ellipse class="st1" cx="189" cy="768.5" rx="25.4" ry="26.2"/><ellipse class="st1" cx="44.4" cy="581.7" rx="35.2" ry="36.3"/><ellipse class="st1" cx="179.9" cy="29.6" rx="20.3" ry="21"/><ellipse class="st1" cx="180.7" cy="393.5" rx="22" ry="22.7"/><path class="st1" d="M64.8 280H25.4L5.8 315.2l19.6 35.1h39.4l19.7-35.1zm134.8 209h-39.4l-19.6 35.1 19.6 35.2h39.4l19.7-35.2zM79.5 412.7l-29 51.9h58zm113.3 205.8l-29 52h58zm46.3-494.2l-50.4-30v60zM1 831.9l50.3 30v-60z"/><path fill="none" stroke="url(#New_Pattern_2)" stroke-miterlimit="10" d="M0-13.3h1459.9V900H0z"/></svg>