
<svg width="133px" height="30px" viewBox="30 26 133 30" version="1.1" xmlns="http://www.w3.org/2000/svg" xmlns:xlink="http://www.w3.org/1999/xlink">
    <!-- Generator: Sketch 42 (36781) - http://www.bohemiancoding.com/sketch -->
    <desc>Created with Sketch.</desc>
    <defs>
        <path d="M114.473333,27.2284615 C112.277692,25.2692308 111.179872,22.7233333 111.179872,19.5884615 C111.179872,16.705641 112.107179,14.1996154 113.962436,12.0723077 C116.041538,9.69461538 118.737949,8.50461538 122.053205,8.50461538 C124.69359,8.50461538 126.926923,9.2375641 128.753846,10.7001282 C131.310256,12.7555128 132.589744,16.020641 132.589744,20.495641 L132.589744,29.53 L127.205128,29.53 L127.205128,20.8862821 C127.205128,18.9192308 126.923077,17.3888462 126.360256,16.2907692 C125.515385,14.6042308 124.038462,13.7610256 121.927051,13.7610256 C120.37859,13.7610256 119.098462,14.2737179 118.085,15.299359 C117.07141,16.325 116.564615,17.6711538 116.564615,19.3339744 C116.564615,20.6938462 116.959231,21.8579487 117.750513,22.8274359 C118.735897,24.0494872 120.24641,24.6583333 122.279744,24.6583333 C123.152564,24.6583333 123.830769,24.5921795 124.310256,24.4580769 C124.789744,24.3257692 125.198718,24.1355128 125.538462,23.8892308 L125.538462,29.1353846 C124.946154,29.3820513 124.334615,29.5723077 123.702564,29.7103846 C123.069231,29.8448718 122.371795,29.9147436 121.610513,29.9147436 C118.850128,29.9147436 116.472436,29.0194872 114.473333,27.2284615 L114.473333,27.2284615 Z M78.8608974,28.4883333 C76.7816667,27.2866667 75.3333333,25.6358974 74.5198718,23.5385897 C73.9008974,21.9719231 73.5925641,19.9869231 73.5925641,17.5811538 L73.5925641,0.0429487179 L78.9771795,0.0429487179 L78.9771795,18.2961538 C78.9771795,20.64 79.5820513,22.3566667 80.7920513,23.444359 C81.6935897,24.2538462 82.8051282,24.6583333 84.1273077,24.6583333 C85.645641,24.6583333 86.9197436,24.1394872 87.9474359,23.1 C88.975,22.0602564 89.4897436,20.7642308 89.4897436,19.2098718 C89.4897436,17.5470513 88.9030769,16.2229487 87.7332051,15.2373077 C86.5611538,14.2538462 85.185,13.7610256 83.6064103,13.7610256 C82.7311538,13.7610256 81.7434615,14.0153846 80.6437179,14.5202564 L80.6437179,9.0974359 C81.7416667,8.70282051 82.8953846,8.50461538 84.1074359,8.50461538 C87.1182051,8.50461538 89.6661538,9.54012821 91.7494872,11.6114103 C93.8328205,13.6829487 94.8744872,16.2167949 94.8744872,19.2098718 C94.8744872,22.1762821 93.8269231,24.7024359 91.7334615,26.7876923 C89.6402564,28.8730769 87.1041026,29.9147436 84.1273077,29.9147436 C82.2724359,29.9147436 80.5175641,29.44 78.8608974,28.4883333 L78.8608974,28.4883333 Z M19.810641,26.8078205 C17.7396154,24.7364103 16.7037179,22.2044872 16.7037179,19.2098718 C16.7037179,16.2167949 17.7396154,13.6829487 19.810641,11.6114103 C21.8820513,9.54012821 24.4142308,8.50461538 27.4089744,8.50461538 C30.4016667,8.50461538 32.9355128,9.54012821 35.0070513,11.6114103 C37.0783333,13.6829487 38.1139744,16.2167949 38.1139744,19.2098718 C38.1139744,22.2044872 37.0783333,24.7364103 35.0070513,26.8078205 C32.9355128,28.8792308 30.4016667,29.9147436 27.4089744,29.9147436 C24.4142308,29.9147436 21.8820513,28.8792308 19.810641,26.8078205 L19.810641,26.8078205 Z M23.6167949,15.3215385 C22.5973077,16.3610256 22.0883333,17.6573077 22.0883333,19.2098718 C22.0883333,20.7361538 22.6051282,22.0241026 23.6389744,23.0778205 C24.6724359,24.1316667 25.9287179,24.6583333 27.4089744,24.6583333 C28.9152564,24.6583333 30.179359,24.1394872 31.1991026,23.1 C32.2185897,22.0602564 32.7296154,20.7642308 32.7296154,19.2098718 C32.7296154,17.6851282 32.2124359,16.3952564 31.1789744,15.3415385 C30.1451282,14.2875641 28.8871795,13.7610256 27.4089744,13.7610256 C25.9003846,13.7610256 24.6362821,14.2817949 23.6167949,15.3215385 L23.6167949,15.3215385 Z M98.1376923,29.53 L98.1376923,9.06935897 L103.009615,9.06935897 L103.009615,12.9416667 C103.484487,11.2870513 104.405769,10.1292308 105.773846,9.46820513 C106.583205,9.08346154 107.532821,8.88923077 108.622564,8.88923077 L109.29359,8.88923077 L109.29359,14.5301282 L108.534615,14.5301282 C106.483333,14.5301282 105.066795,15.2453846 104.281538,16.6735897 C103.774744,17.5991026 103.522308,18.8871795 103.522308,20.5376923 L103.522308,29.53 L98.1376923,29.53 L98.1376923,29.53 Z M64.3314103,29.53 L64.3314103,17.1764103 C64.3314103,15.9964103 63.9788462,15.0970513 63.2778205,14.4780769 C62.7429487,14.0014103 62.0980769,13.7610256 61.3407692,13.7610256 C60.6096154,13.7610256 59.9903846,13.9732051 59.485641,14.3939744 C58.6983333,15.0410256 58.3058974,16.1226923 58.3058974,17.6391026 L58.3058974,29.53 L52.9211538,29.53 L52.9211538,17.6391026 C52.9211538,16.1507692 52.5265385,15.0830769 51.7412821,14.4360256 C51.2065385,13.9871795 50.5874359,13.7610256 49.8865385,13.7610256 C49.1573077,13.7610256 48.5242308,14.0014103 47.9914103,14.4780769 C47.2601282,15.1251282 46.8955128,16.0244872 46.8955128,17.1764103 L46.8955128,29.53 L41.5108974,29.53 L41.5108974,17.074359 C41.5108974,15.3876923 41.679359,14.0775641 42.015641,13.1480769 C42.5767949,11.6296154 43.6565385,10.4196154 45.2569231,9.51820513 C46.4910256,8.84294872 47.8110256,8.50461538 49.2152564,8.50461538 C50.4212821,8.50461538 51.5629487,8.74871795 52.6448718,9.23384615 C53.7264103,9.72051282 54.7160256,10.5497436 55.6137179,11.7216667 C56.4547436,10.6079487 57.4282051,9.7925641 58.5380769,9.27782051 C59.6479487,8.76307692 60.805641,8.50461538 62.0116667,8.50461538 C63.4701282,8.50461538 64.7902564,8.84294872 65.97,9.51820513 C67.5965385,10.4196154 68.6785897,11.615641 69.2112821,13.1058974 C69.5476923,14.0352564 69.7161538,15.3597436 69.7161538,17.074359 L69.7161538,29.53 L64.3314103,29.53 L64.3314103,29.53 Z M0.0275641026,29.53 L0.0275641026,24.2738462 L6.39371795,24.2738462 C7.03461538,24.2738462 7.48333333,24.2316667 7.73576923,24.1476923 C8.23653846,23.9792308 8.48897436,23.6429487 8.48897436,23.1360256 C8.48897436,22.4347436 7.91423077,21.7737179 6.76435897,21.1547436 C6.68025641,21.0987179 6.13141026,20.8323077 5.12179487,20.3534615 C2.96025641,19.3719231 1.59192308,18.4946154 1.01717949,17.7212821 C0.442051282,16.9480769 0.155512821,15.9865385 0.155512821,14.8326923 C0.155512821,13.1480769 0.648461538,11.7997436 1.63423077,10.7882051 C2.78807692,9.60820513 4.47666667,9.01717949 6.70230769,9.01717949 L13.375,9.01717949 L13.375,14.2737179 L6.64205128,14.2737179 C6.30153846,14.2737179 6.03320513,14.3238462 5.83666667,14.4220513 C5.63858974,14.5202564 5.54025641,14.7246154 5.54025641,15.0329487 C5.54025641,15.4255128 5.82269231,15.7921795 6.3875641,16.1288462 C6.55602564,16.2410256 7.10474359,16.5074359 8.03628205,16.9279487 C10.1797436,17.9416667 11.6061538,18.7289744 12.3111538,19.2896154 C13.6092308,20.3575641 14.2583333,21.7478205 14.2583333,23.4603846 C14.2583333,24.9508974 13.8497436,26.1728205 13.0362821,27.1284615 C11.69,28.7308974 9.41666667,29.53 6.21730769,29.53 L0.0275641026,29.53 L0.0275641026,29.53 Z" id="path-1"></path>
    </defs>
    <g id="Group-30" stroke="none" stroke-width="1" fill="none" fill-rule="evenodd" transform="translate(30.000000, 26.000000)">
        <mask id="mask-2" fill="white">
            <use xlink:href="#path-1"></use>
        </mask>
        <g id="Clip-4"></g>
        <polygon id="Fill-3" fill="#53914F" mask="url(#mask-2)" points="0.0275641026 29.9147436 132.589744 29.9147436 132.589744 0.0429487179 0.0275641026 0.0429487179"></polygon>
    </g>
</svg>